<?xml version="1.0" encoding="utf-8"?>
<!-- Generator: Adobe Illustrator 23.0.1, SVG Export Plug-In . SVG Version: 6.00 Build 0)  -->
<svg version="1.0" id="图层_1" xmlns="http://www.w3.org/2000/svg" xmlns:xlink="http://www.w3.org/1999/xlink" x="0px" y="0px"
	 viewBox="0 0 50 50" style="enable-background:new 0 0 50 50;" xml:space="preserve">
<style type="text/css">
	.st0{fill:#10A957;}
	.st1{fill:url(#SVGID_1_);}
	.st2{fill:#FFFFFF;}
</style>
<g>
	<circle class="st0" cx="25" cy="25" r="25"/>
	<linearGradient id="SVGID_1_" gradientUnits="userSpaceOnUse" x1="25" y1="2" x2="25" y2="48">
		<stop  offset="0" style="stop-color:#013310"/>
		<stop  offset="1" style="stop-color:#041C10"/>
	</linearGradient>
	<circle class="st1" cx="25" cy="25" r="23"/>
	<path class="st0" d="M19.7,29.9c-1-0.3-1.9-0.7-2.8-1.3l0-1.8c0-0.8-0.5-1.5-1.3-1.6l-1.8-0.4c-0.4-1-0.6-2-0.7-3l1.4-1.1
		c0.6-0.5,0.8-1.3,0.5-2L14.3,17c0.5-0.9,1.2-1.7,1.9-2.4l1.8,0.4c0.8,0.2,1.5-0.2,1.9-0.9l0.8-1.6c0.5-0.1,1-0.1,1.5-0.1
		c0.5,0,1,0,1.5,0.1l0.8,1.6c0.3,0.7,1.1,1.1,1.9,0.9l1.8-0.4c0.8,0.7,1.4,1.5,1.9,2.4l-0.8,1.6c-0.4,0.7-0.2,1.6,0.5,2l1.4,1.1
		c-0.1,1-0.3,2.1-0.7,3l-1.8,0.4c-0.8,0.2-1.3,0.8-1.3,1.6l0,1.8c-0.8,0.6-1.8,1.1-2.8,1.3l-1.4-1.2c-0.6-0.5-1.5-0.5-2.1,0
		L19.7,29.9L19.7,29.9z M22.2,25c2,0,3.7-1.6,3.7-3.7s-1.6-3.7-3.7-3.7l0,0c-2,0-3.7,1.6-3.7,3.7S20.1,25,22.2,25z"/>
	<path class="st2" d="M29.5,36.7c-0.5-0.1-1-0.4-1.4-0.7l0-0.9c0-0.4-0.3-0.7-0.6-0.8l-0.9-0.2c-0.2-0.5-0.3-1-0.3-1.5l0.7-0.5
		c0.3-0.2,0.4-0.7,0.2-1l-0.4-0.8c0.2-0.5,0.6-0.9,1-1.2l0.9,0.2c0.4,0.1,0.8-0.1,0.9-0.5l0.4-0.8c0.3,0,0.5-0.1,0.8-0.1
		c0.3,0,0.5,0,0.8,0.1l0.4,0.8c0.2,0.4,0.6,0.5,0.9,0.5l0.9-0.2c0.4,0.3,0.7,0.8,1,1.2L34.2,31c-0.2,0.3-0.1,0.8,0.2,1l0.7,0.5
		c0,0.5-0.1,1-0.3,1.5L34,34.3c-0.4,0.1-0.7,0.4-0.6,0.8l0,0.9c-0.4,0.3-0.9,0.5-1.4,0.7l-0.7-0.6c-0.3-0.3-0.7-0.3-1,0L29.5,36.7
		L29.5,36.7z M30.7,34.2c1,0,1.8-0.8,1.8-1.8s-0.8-1.8-1.8-1.8l0,0c-1,0-1.8,0.8-1.8,1.8S29.7,34.2,30.7,34.2z"/>
</g>
</svg>
