<?xml version="1.0" encoding="utf-8"?>
<!-- Generator: Adobe Illustrator 23.0.1, SVG Export Plug-In . SVG Version: 6.00 Build 0)  -->
<svg version="1.0" id="图层_1" xmlns="http://www.w3.org/2000/svg" xmlns:xlink="http://www.w3.org/1999/xlink" x="0px" y="0px"
	 viewBox="0 0 50 50" style="enable-background:new 0 0 50 50;" xml:space="preserve">
<style type="text/css">
	.st0{fill:#10A957;}
	.st1{fill:url(#SVGID_1_);}
	.st2{fill:#FFFFFF;}
</style>
<circle class="st0" cx="25" cy="25" r="25"/>
<linearGradient id="SVGID_1_" gradientUnits="userSpaceOnUse" x1="25" y1="2" x2="25" y2="48">
	<stop  offset="0" style="stop-color:#013310"/>
	<stop  offset="1" style="stop-color:#041C10"/>
</linearGradient>
<circle class="st1" cx="25" cy="25" r="23"/>
<g>
	<g>
		<path class="st0" d="M18.8,34h-5.7c-0.1,0-0.2-0.1-0.2-0.2v-9.7c0-0.1,0.1-0.2,0.2-0.2h5.7c0.1,0,0.2,0.1,0.2,0.2v9.7
			C19,33.9,18.9,34,18.8,34z"/>
		<path class="st0" d="M27.8,34h-5.6c-0.1,0-0.2-0.1-0.2-0.2V20.1c0-0.1,0.1-0.2,0.2-0.2h5.6c0.1,0,0.2,0.1,0.2,0.2v13.7
			C28.1,33.9,27.9,34,27.8,34z"/>
		<path class="st0" d="M36.8,34h-5.6c-0.2,0-0.3-0.1-0.3-0.3V15.6c0-0.2,0.1-0.3,0.3-0.3h5.6c0.2,0,0.3,0.1,0.3,0.3v18.1
			C37.1,33.9,37,34,36.8,34z"/>
	</g>
	<path class="st2" d="M32,20.4c-0.3-0.3-0.8-0.3-1.1,0l-2.2,2.3l-2-1.6c0,0,0,0,0,0c0,0,0,0,0,0l0,0c-0.1,0-0.1-0.1-0.2-0.1
		c0,0-0.1,0-0.1-0.1c-0.3-0.1-0.6,0-0.8,0.2c0,0-0.1,0-0.1,0.1l-3.4,4l-1.7-1.8c0,0,0,0,0,0c0,0,0,0,0,0c0,0-0.1,0-0.1-0.1
		c-0.1,0-0.1-0.1-0.2-0.1c0,0-0.1,0-0.2,0c-0.1,0-0.1,0-0.2,0c0,0-0.1,0-0.1,0c-0.1,0-0.1,0-0.2,0c-0.1,0-0.1,0.1-0.1,0.1
		c0,0-0.1,0-0.1,0.1c0,0,0,0,0,0c0,0,0,0,0,0l-2.7,2.7c-0.3,0.3-0.3,0.8,0,1.1c0.2,0.2,0.4,0.2,0.6,0.2s0.4-0.1,0.6-0.2l2.2-2.2
		l1.8,1.8c0,0,0,0,0,0c0,0,0,0,0,0c0,0,0.1,0.1,0.1,0.1c0,0,0.1,0,0.1,0.1c0.1,0,0.2,0.1,0.3,0.1c0.1,0,0.2,0,0.3-0.1
		c0,0,0.1,0,0.1-0.1c0.1,0,0.1-0.1,0.2-0.1c0,0,0,0,0,0c0,0,0,0,0,0l3.5-4.1l1.9,1.6c0,0,0.1,0.1,0.2,0.1c0,0,0.1,0,0.1,0
		c0.1,0,0.2,0.1,0.3,0.1c0,0,0,0,0,0s0,0,0,0c0.1,0,0.2,0,0.3-0.1c0,0,0.1,0,0.1-0.1c0.1,0,0.1-0.1,0.2-0.1l2.7-2.9
		C32.3,21.2,32.3,20.7,32,20.4z"/>
</g>
</svg>
