<?xml version="1.0" encoding="utf-8"?>
<!-- Generator: Adobe Illustrator 23.0.1, SVG Export Plug-In . SVG Version: 6.00 Build 0)  -->
<svg version="1.0" id="图层_1" xmlns="http://www.w3.org/2000/svg" xmlns:xlink="http://www.w3.org/1999/xlink" x="0px" y="0px"
	 viewBox="0 0 50 50" style="enable-background:new 0 0 50 50;" xml:space="preserve">
<style type="text/css">
	.st0{fill:#10A957;}
	.st1{fill:url(#SVGID_1_);}
	.st2{fill:#FFFFFF;}
</style>
<g>
	<circle class="st0" cx="25" cy="25" r="25"/>
	<linearGradient id="SVGID_1_" gradientUnits="userSpaceOnUse" x1="25" y1="2" x2="25" y2="48">
		<stop  offset="0" style="stop-color:#013310"/>
		<stop  offset="1" style="stop-color:#041C10"/>
	</linearGradient>
	<circle class="st1" cx="25" cy="25" r="23"/>
	<path class="st0" d="M35.7,20.4c-0.9-1.8-2.4-3.3-4.2-4.2c-0.1-0.1-0.3,0-0.4,0.1L31,16.4c-0.1,0.1-0.1,0.1-0.2,0.1
		c-0.1,0-0.2,0-0.2-0.1l-1.2-1.1c0,0,0,0,0-0.1c0,0,0-0.1,0-0.1c0.1-0.2,0.2-0.3,0.2-0.5c0-0.2-0.1-0.4-0.3-0.5L28,13
		c-0.4-0.4-1-0.3-1.4,0.1l-2.2,2.5c-0.4,0.4-0.3,1,0.1,1.4c0,0,0,0,0,0l1.2,1.1c0.3,0.3,0.8,0.3,1.1-0.1c0,0,0,0,0,0
		c0,0,0.1,0,0.2,0l1.4,1.3c0,0,0,0.1,0,0.2L14.4,32.1c-0.2,0.2-0.3,0.5-0.3,0.8c0,0.2,0,0.3,0.1,0.4c0.1,0.1,0.2,0.2,0.3,0.3
		l1.9,1.7c0.5,0.4,1.2,0.4,1.6-0.1l12.9-12.4c0.9-0.1,1.9,0.1,2.3,0.7c0.4,0.7,0.7,2.1,0.9,4.3c0,0.2,0.2,0.3,0.3,0.3l1,0
		c0.1,0,0.3-0.1,0.3-0.2C36.7,24.8,36.7,22.2,35.7,20.4z"/>
	<path class="st2" d="M28.7,29.4c-0.2,0-0.4,0-0.5-0.1l-0.7-0.7l0,0l0,0l-1.1-1.2c0,0,0,0,0,0l-3.7-4c0,0,0,0,0,0l-1.8-2
		c-0.1-0.1-0.2-0.4-0.1-0.6c0.4-1.2,0.2-2.5-0.7-3.5c-0.8-0.9-1.9-1.2-3-1.1c-0.3,0-0.4,0.4-0.2,0.7l1.8,2c0.3,0.3,0.2,0.7,0,1
		l-1,0.9c-0.3,0.3-0.7,0.2-1,0l-1.8-2c-0.2-0.2-0.6-0.1-0.7,0.2c-0.3,1.1,0,2.3,0.8,3.2c0.9,1,2.2,1.3,3.4,1c0.2,0,0.4,0,0.5,0.1
		l0.9,1l0,0l0,0l0.9,1c0,0,0,0,0,0l3.7,4c0,0,0,0,0,0l1.8,2c0.1,0.1,0.2,0.4,0.1,0.6c-0.4,1.2-0.2,2.5,0.7,3.5
		c0.8,0.9,1.9,1.2,3,1.1c0.3,0,0.4-0.4,0.2-0.7l-1.8-2c-0.3-0.3-0.2-0.7,0-1l1-0.9c0.3-0.3,0.7-0.2,1,0l1.8,2
		c0.2,0.2,0.6,0.1,0.7-0.2c0.3-1.1,0-2.3-0.8-3.2C31.2,29.5,29.9,29.1,28.7,29.4z"/>
</g>
</svg>
