<?xml version="1.0" encoding="utf-8"?>
<!-- Generator: Adobe Illustrator 23.0.1, SVG Export Plug-In . SVG Version: 6.00 Build 0)  -->
<svg version="1.0" id="图层_1" xmlns="http://www.w3.org/2000/svg" xmlns:xlink="http://www.w3.org/1999/xlink" x="0px" y="0px"
	 viewBox="0 0 50 50" style="enable-background:new 0 0 50 50;" xml:space="preserve">
<style type="text/css">
	.st0{fill:#10A957;}
	.st1{fill:url(#SVGID_1_);}
	.st2{fill:#FFFFFF;}
</style>
<g>
	<circle class="st0" cx="25" cy="25" r="25"/>
	<linearGradient id="SVGID_1_" gradientUnits="userSpaceOnUse" x1="25" y1="2" x2="25" y2="48">
		<stop  offset="0" style="stop-color:#013310"/>
		<stop  offset="1" style="stop-color:#041C10"/>
	</linearGradient>
	<circle class="st1" cx="25" cy="25" r="23"/>
</g>
<g>
	<path class="st2" d="M29.4,26.5l-4.1-5.3c-0.1-0.2-0.3-0.2-0.4,0l-4.3,5.3c-0.1,0.2,0,0.4,0.2,0.4h2.8v9.9c0,0.1,0.1,0.2,0.2,0.2
		h2.4c0.1,0,0.2-0.1,0.2-0.2v-9.9h2.8C29.4,26.9,29.5,26.7,29.4,26.5z"/>
	<path class="st0" d="M34.4,23.3c-0.8-0.6-1-1.7-0.6-2.5l1-2c-0.6-1.1-1.4-2.2-2.4-3l-2.2,0.5c-0.9,0.2-1.9-0.2-2.3-1.1l-0.9-2.1
		C26.3,13,25.7,13,25,13c-0.6,0-1.3,0.1-1.9,0.2l-0.9,2.1c-0.4,0.9-1.4,1.4-2.3,1.1l-2.2-0.5c-1,0.9-1.8,1.9-2.4,3l1,2
		c0.4,0.9,0.2,1.9-0.6,2.5l-1.8,1.4c0.1,1.3,0.4,2.6,0.9,3.8l2.2,0.5c1,0.2,1.6,1.1,1.6,2l0,2.3c1.1,0.8,2.2,1.3,3.5,1.7l0.8-0.6
		v-4.1c-2.4-0.9-4.2-3.3-4.2-6c0-3.6,2.9-6.5,6.5-6.5c3.6,0,6.5,2.9,6.5,6.5c0,2.7-1.7,5.1-4.1,6v4.2l0.7,0.6
		c1.2-0.4,2.4-0.9,3.5-1.7l0-2.3c0-1,0.7-1.8,1.6-2l2.2-0.5c0.5-1.2,0.8-2.5,0.9-3.8L34.4,23.3z"/>
</g>
</svg>
