<?xml version="1.0" encoding="utf-8"?>
<!-- Generator: Adobe Illustrator 22.0.1, SVG Export Plug-In . SVG Version: 6.00 Build 0)  -->
<svg version="1.0" id="图层_1" xmlns="http://www.w3.org/2000/svg" xmlns:xlink="http://www.w3.org/1999/xlink" x="0px" y="0px"
	 viewBox="0 0 436 63" style="enable-background:new 0 0 436 63;" xml:space="preserve">
<g>
	<path style="fill:#3F3F3F;" d="M432,63H4c-2.2,0-4-1.8-4-4V4c0-2.2,1.8-4,4-4h428c2.2,0,4,1.8,4,4v55C436,61.2,434.2,63,432,63z"/>
	<path style="fill:#101010;" d="M431,60H5c-1.1,0-2-0.9-2-2V5c0-1.1,0.9-2,2-2h426c1.1,0,2,0.9,2,2v53C433,59.1,432.1,60,431,60z"/>
	<path style="fill:#3F3F3F;" d="M430,58H6c-0.6,0-1-0.4-1-1V6c0-0.6,0.4-1,1-1h424c0.6,0,1,0.4,1,1V57C431,57.6,430.6,58,430,58z"/>
	<g class="lan1" onclick="openList(this)">
		<rect x="32.8" y="12" style="fill:#101010;" width="39.9" height="29.9"/>
		<rect x="34.8" y="14" style="fill:#3F3F3F;" width="36" height="26"/>
		<polygon class="port-color" points="64.2,20.4 64.2,16.6 62.3,16.6 62.3,12 43.3,12 43.3,16.6 41.4,16.6 41.4,20.4 37.6,20.4 
			37.6,37.2 68,37.2 68,20.4 		"/>
	</g>
	<g>
		<path style="fill:#7F7F7F;" d="M49,53.3h-2.7V49h0.7v3.7H49V53.3z"/>
		<path style="fill:#7F7F7F;" d="M52.8,53.3h-0.7l-0.3-0.9h-1.7l-0.3,0.9h-0.7l1.6-4.3h0.5L52.8,53.3z M51.7,51.9L51,50l-0.7,1.9
			H51.7z"/>
		<path style="fill:#7F7F7F;" d="M56.7,53.3h-0.6l-2-3v3h-0.7V49H54l2,3v-3h0.6V53.3z"/>
		<path style="fill:#7F7F7F;" d="M59.3,53.3h-0.6v-3.6l-0.8,0.7v-0.7l0.8-0.7h0.6V53.3z"/>
	</g>
	<g class="lan2" onclick="openList(this)">
		<rect x="99.4" y="12" style="fill:#101010;" width="39.9" height="29.9"/>
		<rect x="101.4" y="14" style="fill:#3F3F3F;" width="36" height="26"/>
		<polygon class="port-color" points="130.8,20.4 130.8,16.6 128.9,16.6 128.9,12 109.8,12 109.8,16.6 107.9,16.6 107.9,20.4 
			104.1,20.4 104.1,37.2 134.6,37.2 134.6,20.4 		"/>
	</g>
	<g>
		<path style="fill:#7F7F7F;" d="M115.1,53h-2.7v-4.3h0.7v3.7h2.1V53z"/>
		<path style="fill:#7F7F7F;" d="M119,53h-0.7l-0.3-0.9h-1.7l-0.3,0.9h-0.7l1.6-4.3h0.5L119,53z M117.9,51.6l-0.6-1.9l-0.7,1.9
			H117.9z"/>
		<path style="fill:#7F7F7F;" d="M122.8,53h-0.6l-2-3v3h-0.7v-4.3h0.6l2,3v-3h0.6V53z"/>
		<path style="fill:#7F7F7F;" d="M126.3,53h-2.5v-0.5l1.6-2c0.2-0.2,0.2-0.4,0.2-0.6c0-0.1,0-0.2-0.1-0.3c0-0.1-0.1-0.2-0.2-0.2
			c-0.1-0.1-0.2-0.1-0.3-0.1c-0.2,0-0.3,0.1-0.4,0.2c-0.1,0.1-0.2,0.3-0.2,0.5h-0.6c0-0.2,0-0.3,0.1-0.5c0.1-0.2,0.1-0.3,0.3-0.4
			c0.1-0.1,0.2-0.2,0.4-0.2c0.2-0.1,0.3-0.1,0.5-0.1c0.2,0,0.5,0,0.6,0.1c0.2,0.1,0.3,0.2,0.4,0.4c0.1,0.2,0.2,0.4,0.2,0.6
			c0,0.2,0,0.3-0.1,0.5c-0.1,0.1-0.2,0.3-0.3,0.5l-1.3,1.6h1.7V53z"/>
	</g>
	<g>
		<rect x="164.8" y="12" style="fill:#101010;" width="39.9" height="29.9"/>
		<rect x="166.8" y="14" style="fill:#3F3F3F;" width="36" height="26"/>
		<polygon style="fill:#101010;" points="196.2,20.4 196.2,16.6 194.3,16.6 194.3,12 175.2,12 175.2,16.6 173.3,16.6 173.3,20.4 
			169.5,20.4 169.5,37.2 200,37.2 200,20.4 		"/>
	</g>
	<g>
		<path style="fill:#7F7F7F;" d="M183.5,49l-1.1,4.3h-0.6l-0.9-3l-0.9,3h-0.6l-1.1-4.3h0.7l0.7,3l0.9-3h0.5l0.9,3l0.7-3H183.5z"/>
		<path style="fill:#7F7F7F;" d="M187.3,53.3h-0.7l-0.3-0.9h-1.7l-0.3,0.9h-0.7l1.6-4.3h0.5L187.3,53.3z M186.1,51.9l-0.6-1.9
			l-0.7,1.9H186.1z"/>
		<path style="fill:#7F7F7F;" d="M191.1,53.3h-0.6l-2-3v3h-0.7V49h0.6l2,3v-3h0.6V53.3z"/>
	</g>
	<g>
		<g class="rs2" onclick="rsPort(this)">
			<rect x="296.6" y="12" style="fill:#101010;" width="39.9" height="29.9"/>
			<rect x="298.6" y="14" style="fill:#3F3F3F;" width="36" height="26"/>
			<polygon class="port-color" points="328,20.4 328,16.6 326.1,16.6 326.1,12 307.1,12 307.1,16.6 305.1,16.6 305.1,20.4 
				301.3,20.4 301.3,37.2 331.8,37.2 331.8,20.4 			"/>
		</g>
		<g class="rs1-2" onclick="rsPort(this)">
			<rect x="362.5" y="12" style="fill:#101010;" width="39.9" height="29.9"/>
			<rect x="364.5" y="14" style="fill:#3F3F3F;" width="36" height="26"/>
			<polygon class="port-color" points="393.9,20.4 393.9,16.6 392,16.6 392,12 373,12 373,16.6 371.1,16.6 371.1,20.4 
				367.3,20.4 367.3,37.2 397.7,37.2 397.7,20.4 			"/>
		</g>
	</g>
	<g>
		<g>
			<rect x="324.1" y="46.9" style="fill:#7F7F7F;" width="3" height="1"/>
			
				<rect x="323.1" y="45.9" transform="matrix(-1.836970e-16 1 -1 -1.836970e-16 371.0025 -278.1755)" style="fill:#7F7F7F;" width="3" height="1"/>
		</g>
		<g>
			
				<rect x="372" y="46.9" transform="matrix(-1 -4.675117e-11 4.675117e-11 -1 746.9356 94.8233)" style="fill:#7F7F7F;" width="3" height="1"/>
			
				<rect x="373" y="45.9" transform="matrix(-4.738184e-11 1 -1 -4.738184e-11 420.8799 -328.0529)" style="fill:#7F7F7F;" width="3" height="1"/>
		</g>
		<g>
			<path style="fill:#7F7F7F;" d="M330,48.8h1.6c0.3,0,0.6,0.1,0.8,0.3c0.3,0.2,0.4,0.5,0.4,0.9c0,0.6-0.3,1-0.8,1.2l1,1.9h-0.7
				l-0.9-1.8h-0.8v1.8H330V48.8z M330.6,50.7h0.9c0.2,0,0.4-0.1,0.5-0.2c0.1-0.1,0.2-0.3,0.2-0.5c0-0.2-0.1-0.4-0.2-0.5
				c-0.1-0.1-0.3-0.1-0.5-0.1h-1V50.7z"/>
			<path style="fill:#7F7F7F;" d="M333.9,52c0.3,0.3,0.7,0.4,1.2,0.4c0.5,0,0.8-0.2,0.8-0.6c0-0.3-0.2-0.5-0.5-0.6
				c-0.2,0-0.3,0-0.5-0.1c-0.4-0.1-0.6-0.2-0.8-0.4c-0.2-0.2-0.3-0.5-0.3-0.8c0-0.4,0.1-0.7,0.4-0.9c0.2-0.2,0.6-0.3,1-0.3
				c0.5,0,1,0.2,1.3,0.4l-0.3,0.5c-0.3-0.2-0.7-0.3-1-0.3c-0.2,0-0.4,0-0.5,0.1c-0.1,0.1-0.2,0.3-0.2,0.5c0,0.1,0,0.2,0.1,0.3
				c0.1,0.1,0.2,0.2,0.4,0.2c0.1,0,0.3,0,0.5,0.1c0.4,0.1,0.7,0.2,0.9,0.4c0.2,0.2,0.3,0.5,0.3,0.8c0,0.8-0.5,1.2-1.5,1.2
				c-0.6,0-1.1-0.2-1.6-0.6L333.9,52z"/>
			<path style="fill:#7F7F7F;" d="M337.2,51.9l1.4-3.1h0.7l-1.4,3.1h1.1v-1.2h0.6v1.2h0.3v0.6h-0.3v0.6h-0.6v-0.6h-1.7V51.9z"/>
			<path style="fill:#7F7F7F;" d="M340.4,51.8c0-0.4,0.2-0.7,0.5-1c-0.1-0.1-0.2-0.2-0.3-0.4c-0.1-0.1-0.1-0.3-0.1-0.5
				c0-0.4,0.1-0.6,0.3-0.9c0.2-0.2,0.5-0.3,0.8-0.4c0.3,0,0.6,0.1,0.8,0.4c0.2,0.2,0.3,0.5,0.3,0.9c0,0.2,0,0.3-0.1,0.5
				c-0.1,0.1-0.2,0.3-0.3,0.4c0.3,0.2,0.5,0.5,0.5,1c0,0.4-0.1,0.7-0.4,0.9c-0.2,0.2-0.5,0.4-0.9,0.4c-0.4,0-0.6-0.1-0.9-0.4
				C340.5,52.5,340.4,52.2,340.4,51.8z M341,51.8c0,0.2,0.1,0.4,0.2,0.5c0.1,0.1,0.3,0.2,0.5,0.2c0.2,0,0.3-0.1,0.5-0.2
				c0.1-0.1,0.2-0.3,0.2-0.5c0-0.2-0.1-0.4-0.2-0.5c-0.1-0.1-0.3-0.2-0.5-0.2c-0.2,0-0.3,0.1-0.5,0.2C341,51.5,341,51.6,341,51.8z
				 M341,50c0,0.2,0.1,0.3,0.2,0.5c0.1,0.1,0.3,0.2,0.4,0.2c0.2,0,0.3-0.1,0.4-0.2c0.1-0.1,0.2-0.3,0.2-0.5c0-0.2-0.1-0.4-0.2-0.5
				c-0.1-0.1-0.3-0.2-0.4-0.2c-0.2,0-0.3,0-0.4,0.2C341.1,49.6,341,49.8,341,50z"/>
			<path style="fill:#7F7F7F;" d="M343.6,48.8h2.2v0.6h-1.6v1c0.2-0.2,0.4-0.2,0.7-0.2c0.2,0,0.3,0,0.4,0.1c0.1,0.1,0.2,0.1,0.3,0.2
				c0.1,0.1,0.2,0.3,0.2,0.4c0,0.1,0,0.2,0.1,0.3c0,0.1,0,0.3,0,0.5c0,0.3,0,0.5-0.1,0.6c0,0.1-0.1,0.3-0.2,0.4
				c-0.1,0.1-0.2,0.2-0.4,0.3c-0.2,0.1-0.3,0.1-0.5,0.1c-0.3,0-0.5-0.1-0.8-0.3c-0.2-0.2-0.4-0.5-0.4-0.8h0.6
				c0.1,0.3,0.3,0.5,0.6,0.5c0.1,0,0.3,0,0.3-0.1c0.1-0.1,0.1-0.1,0.2-0.2c0-0.1,0.1-0.2,0.1-0.3c0-0.1,0-0.2,0-0.3
				c0-0.2,0-0.4-0.1-0.6c0-0.1-0.1-0.1-0.2-0.2c-0.1,0-0.2-0.1-0.3-0.1c-0.1,0-0.2,0-0.3,0.1c-0.1,0.1-0.2,0.1-0.2,0.3h-0.6V48.8z"
				/>
			<path style="fill:#7F7F7F;" d="M347.9,48.8h0.5l-1.4,4.3h-0.5L347.9,48.8z"/>
			<path style="fill:#7F7F7F;" d="M349.1,48.8h1.6c0.3,0,0.6,0.1,0.8,0.3c0.3,0.2,0.4,0.5,0.4,0.9c0,0.6-0.3,1-0.8,1.2l1,1.9h-0.7
				l-0.9-1.8h-0.8v1.8h-0.6V48.8z M349.8,50.7h0.9c0.2,0,0.4-0.1,0.5-0.2c0.1-0.1,0.2-0.3,0.2-0.5c0-0.2-0.1-0.4-0.2-0.5
				c-0.1-0.1-0.3-0.1-0.5-0.1h-1V50.7z"/>
			<path style="fill:#7F7F7F;" d="M353.1,52c0.3,0.3,0.7,0.4,1.2,0.4c0.5,0,0.8-0.2,0.8-0.6c0-0.3-0.2-0.5-0.5-0.6
				c-0.2,0-0.3,0-0.5-0.1c-0.4-0.1-0.6-0.2-0.8-0.4c-0.2-0.2-0.3-0.5-0.3-0.8c0-0.4,0.1-0.7,0.4-0.9c0.2-0.2,0.6-0.3,1-0.3
				c0.5,0,1,0.2,1.3,0.4l-0.3,0.5c-0.3-0.2-0.7-0.3-1-0.3c-0.2,0-0.4,0-0.5,0.1c-0.1,0.1-0.2,0.3-0.2,0.5c0,0.1,0,0.2,0.1,0.3
				c0.1,0.1,0.2,0.2,0.4,0.2c0.1,0,0.3,0,0.5,0.1c0.4,0.1,0.7,0.2,0.9,0.4c0.2,0.2,0.3,0.5,0.3,0.8c0,0.8-0.5,1.2-1.5,1.2
				c-0.6,0-1.1-0.2-1.6-0.6L353.1,52z"/>
			<path style="fill:#7F7F7F;" d="M356.5,52.5l1.6-2.1c0.1-0.1,0.1-0.2,0.1-0.2c0-0.1,0-0.1,0-0.2c0-0.2,0-0.3-0.1-0.4
				c-0.1-0.1-0.2-0.2-0.4-0.2c-0.2,0-0.3,0.1-0.4,0.2c-0.1,0.1-0.2,0.3-0.2,0.5h-0.6c0-0.4,0.1-0.6,0.3-0.9c0.2-0.2,0.5-0.3,0.8-0.3
				c0.4,0,0.6,0.1,0.9,0.4c0.2,0.2,0.3,0.5,0.3,0.9c0,0.3-0.1,0.5-0.2,0.7l-1.3,1.7h1.6v0.6h-2.4V52.5z"/>
			<path style="fill:#7F7F7F;" d="M360.4,50.6h0.2c0.2,0,0.4-0.1,0.5-0.2c0.1-0.1,0.2-0.3,0.2-0.4c0-0.2-0.1-0.3-0.2-0.4
				c-0.1-0.1-0.3-0.2-0.4-0.2c-0.1,0-0.2,0-0.3,0.1c-0.1,0.1-0.2,0.2-0.2,0.4h-0.6c0-0.3,0.2-0.6,0.4-0.8c0.2-0.2,0.5-0.3,0.8-0.3
				c0.4,0,0.7,0.1,0.9,0.4c0.2,0.2,0.3,0.5,0.3,0.8c0,0.2,0,0.3-0.1,0.5c-0.1,0.2-0.2,0.3-0.4,0.4c0.2,0.1,0.3,0.3,0.4,0.4
				c0.1,0.2,0.1,0.3,0.1,0.5c0,0.4-0.1,0.7-0.4,0.9c-0.2,0.2-0.5,0.4-0.9,0.4c-0.3,0-0.5-0.1-0.7-0.3c-0.2-0.2-0.4-0.5-0.4-0.8h0.6
				c0.1,0.1,0.1,0.3,0.2,0.3c0.1,0.1,0.2,0.1,0.4,0.1c0.2,0,0.3-0.1,0.4-0.2c0.1-0.1,0.2-0.3,0.2-0.5c0-0.2-0.1-0.4-0.2-0.5
				c-0.1-0.1-0.3-0.2-0.5-0.2h-0.3V50.6z"/>
			<path style="fill:#7F7F7F;" d="M362.7,52.5l1.6-2.1c0.1-0.1,0.1-0.2,0.1-0.2c0-0.1,0-0.1,0-0.2c0-0.2,0-0.3-0.1-0.4
				c-0.1-0.1-0.2-0.2-0.4-0.2c-0.2,0-0.3,0.1-0.4,0.2c-0.1,0.1-0.2,0.3-0.2,0.5h-0.6c0-0.4,0.1-0.6,0.3-0.9c0.2-0.2,0.5-0.3,0.8-0.3
				c0.4,0,0.6,0.1,0.9,0.4c0.2,0.2,0.3,0.5,0.3,0.9c0,0.3-0.1,0.5-0.2,0.7l-1.3,1.7h1.6v0.6h-2.4V52.5z"/>
			<path style="fill:#7F7F7F;" d="M365.9,51.1h1.7v0.6h-1.7V51.1z"/>
			<path style="fill:#7F7F7F;" d="M369.4,49.5l-0.6,0.4v-0.7l0.6-0.4h0.6v4.3h-0.6V49.5z"/>
		</g>
	</g>
	<g class="rs2" onclick="rsPort(this)">
		<rect x="230.7" y="12" style="fill:#101010;" width="39.9" height="29.9"/>
		<rect x="232.7" y="14" style="fill:#3F3F3F;" width="36" height="26"/>
		<polygon class="port-color" points="262.1,20.4 262.1,16.6 260.2,16.6 260.2,12 241.1,12 241.1,16.6 239.2,16.6 239.2,20.4 
			235.4,20.4 235.4,37.2 265.9,37.2 265.9,20.4 		"/>
	</g>
	<g>
		<path style="fill:#7F7F7F;" d="M230.2,49h1.6c0.3,0,0.6,0.1,0.8,0.3c0.3,0.2,0.4,0.5,0.4,0.9c0,0.6-0.3,1-0.8,1.2l1,1.9h-0.7
			l-0.9-1.8h-0.8v1.8h-0.6V49z M230.9,50.9h0.9c0.2,0,0.4-0.1,0.5-0.2c0.1-0.1,0.2-0.3,0.2-0.5c0-0.2-0.1-0.4-0.2-0.5
			c-0.1-0.1-0.3-0.1-0.5-0.1h-1V50.9z"/>
		<path style="fill:#7F7F7F;" d="M234.2,52.3c0.3,0.3,0.7,0.4,1.2,0.4c0.5,0,0.8-0.2,0.8-0.6c0-0.3-0.2-0.5-0.5-0.6
			c-0.2,0-0.3,0-0.5-0.1c-0.4-0.1-0.6-0.2-0.8-0.4c-0.2-0.2-0.3-0.5-0.3-0.8c0-0.4,0.1-0.7,0.4-0.9c0.2-0.2,0.6-0.3,1-0.3
			c0.5,0,1,0.2,1.3,0.4l-0.3,0.5c-0.3-0.2-0.7-0.3-1-0.3c-0.2,0-0.4,0-0.5,0.1c-0.1,0.1-0.2,0.3-0.2,0.5c0,0.1,0,0.2,0.1,0.3
			c0.1,0.1,0.2,0.2,0.4,0.2c0.1,0,0.3,0,0.5,0.1c0.4,0.1,0.7,0.2,0.9,0.4c0.2,0.2,0.3,0.5,0.3,0.8c0,0.8-0.5,1.2-1.5,1.2
			c-0.6,0-1.1-0.2-1.6-0.6L234.2,52.3z"/>
		<path style="fill:#7F7F7F;" d="M237.4,52.1l1.4-3.1h0.7l-1.4,3.1h1.1v-1.2h0.6v1.2h0.3v0.6h-0.3v0.6h-0.6v-0.6h-1.7V52.1z"/>
		<path style="fill:#7F7F7F;" d="M240.6,52.1c0-0.4,0.2-0.7,0.5-1c-0.1-0.1-0.2-0.2-0.3-0.4c-0.1-0.1-0.1-0.3-0.1-0.5
			c0-0.4,0.1-0.6,0.3-0.9c0.2-0.2,0.5-0.3,0.8-0.4c0.3,0,0.6,0.1,0.8,0.4c0.2,0.2,0.3,0.5,0.3,0.9c0,0.2,0,0.3-0.1,0.5
			c-0.1,0.1-0.2,0.3-0.3,0.4c0.3,0.2,0.5,0.5,0.5,1c0,0.4-0.1,0.7-0.4,0.9c-0.2,0.2-0.5,0.4-0.9,0.4c-0.4,0-0.6-0.1-0.9-0.4
			C240.7,52.7,240.6,52.4,240.6,52.1z M241.2,52.1c0,0.2,0.1,0.4,0.2,0.5c0.1,0.1,0.3,0.2,0.5,0.2c0.2,0,0.3-0.1,0.5-0.2
			c0.1-0.1,0.2-0.3,0.2-0.5c0-0.2-0.1-0.4-0.2-0.5c-0.1-0.1-0.3-0.2-0.5-0.2c-0.2,0-0.3,0.1-0.5,0.2
			C241.3,51.7,241.2,51.9,241.2,52.1z M241.3,50.2c0,0.2,0.1,0.3,0.2,0.5c0.1,0.1,0.3,0.2,0.4,0.2c0.2,0,0.3-0.1,0.4-0.2
			c0.1-0.1,0.2-0.3,0.2-0.5c0-0.2-0.1-0.4-0.2-0.5c-0.1-0.1-0.3-0.2-0.4-0.2c-0.2,0-0.3,0-0.4,0.2C241.3,49.9,241.3,50,241.3,50.2z"
			/>
		<path style="fill:#7F7F7F;" d="M243.9,49h2.2v0.6h-1.6v1c0.2-0.2,0.4-0.2,0.7-0.2c0.2,0,0.3,0,0.4,0.1c0.1,0.1,0.2,0.1,0.3,0.2
			c0.1,0.1,0.2,0.3,0.2,0.4c0,0.1,0,0.2,0.1,0.3c0,0.1,0,0.3,0,0.5c0,0.3,0,0.5-0.1,0.6c0,0.1-0.1,0.3-0.2,0.4
			c-0.1,0.1-0.2,0.2-0.4,0.3c-0.2,0.1-0.3,0.1-0.5,0.1c-0.3,0-0.5-0.1-0.8-0.3c-0.2-0.2-0.4-0.5-0.4-0.8h0.6
			c0.1,0.3,0.3,0.5,0.6,0.5c0.1,0,0.3,0,0.3-0.1c0.1-0.1,0.1-0.1,0.2-0.2c0-0.1,0.1-0.2,0.1-0.3c0-0.1,0-0.2,0-0.3
			c0-0.2,0-0.4-0.1-0.6c0-0.1-0.1-0.1-0.2-0.2c-0.1,0-0.2-0.1-0.3-0.1c-0.1,0-0.2,0-0.3,0.1c-0.1,0.1-0.2,0.1-0.2,0.3h-0.6V49z"/>
		<path style="fill:#7F7F7F;" d="M248.1,49h0.5l-1.4,4.3h-0.5L248.1,49z"/>
		<path style="fill:#7F7F7F;" d="M249.4,49h1.6c0.3,0,0.6,0.1,0.8,0.3c0.3,0.2,0.4,0.5,0.4,0.9c0,0.6-0.3,1-0.8,1.2l1,1.9h-0.7
			l-0.9-1.8H250v1.8h-0.6V49z M250,50.9h0.9c0.2,0,0.4-0.1,0.5-0.2c0.1-0.1,0.2-0.3,0.2-0.5c0-0.2-0.1-0.4-0.2-0.5
			c-0.1-0.1-0.3-0.1-0.5-0.1h-1V50.9z"/>
		<path style="fill:#7F7F7F;" d="M253.3,52.3c0.3,0.3,0.7,0.4,1.2,0.4c0.5,0,0.8-0.2,0.8-0.6c0-0.3-0.2-0.5-0.5-0.6
			c-0.2,0-0.3,0-0.5-0.1c-0.4-0.1-0.6-0.2-0.8-0.4c-0.2-0.2-0.3-0.5-0.3-0.8c0-0.4,0.1-0.7,0.4-0.9c0.2-0.2,0.6-0.3,1-0.3
			c0.5,0,1,0.2,1.3,0.4l-0.3,0.5c-0.3-0.2-0.7-0.3-1-0.3c-0.2,0-0.4,0-0.5,0.1c-0.1,0.1-0.2,0.3-0.2,0.5c0,0.1,0,0.2,0.1,0.3
			c0.1,0.1,0.2,0.2,0.4,0.2c0.1,0,0.3,0,0.5,0.1c0.4,0.1,0.7,0.2,0.9,0.4c0.2,0.2,0.3,0.5,0.3,0.8c0,0.8-0.5,1.2-1.5,1.2
			c-0.6,0-1.1-0.2-1.6-0.6L253.3,52.3z"/>
		<path style="fill:#7F7F7F;" d="M256.7,52.7l1.6-2.1c0.1-0.1,0.1-0.2,0.1-0.2c0-0.1,0-0.1,0-0.2c0-0.2,0-0.3-0.1-0.4
			c-0.1-0.1-0.2-0.2-0.4-0.2c-0.2,0-0.3,0.1-0.4,0.2c-0.1,0.1-0.2,0.3-0.2,0.5h-0.6c0-0.4,0.1-0.6,0.3-0.9c0.2-0.2,0.5-0.3,0.8-0.3
			c0.4,0,0.6,0.1,0.9,0.4c0.2,0.2,0.3,0.5,0.3,0.9c0,0.3-0.1,0.5-0.2,0.7l-1.3,1.7h1.6v0.6h-2.4V52.7z"/>
		<path style="fill:#7F7F7F;" d="M260.7,50.8h0.2c0.2,0,0.4-0.1,0.5-0.2c0.1-0.1,0.2-0.3,0.2-0.4c0-0.2-0.1-0.3-0.2-0.4
			c-0.1-0.1-0.3-0.2-0.4-0.2c-0.1,0-0.2,0-0.3,0.1c-0.1,0.1-0.2,0.2-0.2,0.4h-0.6c0-0.3,0.2-0.6,0.4-0.8c0.2-0.2,0.5-0.3,0.8-0.3
			c0.4,0,0.7,0.1,0.9,0.4c0.2,0.2,0.3,0.5,0.3,0.8c0,0.2,0,0.3-0.1,0.5c-0.1,0.2-0.2,0.3-0.4,0.4c0.2,0.1,0.3,0.3,0.4,0.4
			c0.1,0.2,0.1,0.3,0.1,0.5c0,0.4-0.1,0.7-0.4,0.9c-0.2,0.2-0.5,0.4-0.9,0.4c-0.3,0-0.5-0.1-0.7-0.3c-0.2-0.2-0.4-0.5-0.4-0.8h0.6
			c0.1,0.1,0.1,0.3,0.2,0.3c0.1,0.1,0.2,0.1,0.4,0.1c0.2,0,0.3-0.1,0.4-0.2c0.1-0.1,0.2-0.3,0.2-0.5c0-0.2-0.1-0.4-0.2-0.5
			c-0.1-0.1-0.3-0.2-0.5-0.2h-0.3V50.8z"/>
		<path style="fill:#7F7F7F;" d="M262.9,52.7l1.6-2.1c0.1-0.1,0.1-0.2,0.1-0.2c0-0.1,0-0.1,0-0.2c0-0.2,0-0.3-0.1-0.4
			c-0.1-0.1-0.2-0.2-0.4-0.2c-0.2,0-0.3,0.1-0.4,0.2c-0.1,0.1-0.2,0.3-0.2,0.5h-0.6c0-0.4,0.1-0.6,0.3-0.9c0.2-0.2,0.5-0.3,0.8-0.3
			c0.4,0,0.6,0.1,0.9,0.4c0.2,0.2,0.3,0.5,0.3,0.9c0,0.3-0.1,0.5-0.2,0.7l-1.3,1.7h1.6v0.6h-2.4V52.7z"/>
		<path style="fill:#7F7F7F;" d="M266.2,51.3h1.7v0.6h-1.7V51.3z"/>
		<path style="fill:#7F7F7F;" d="M268.7,52.7l1.6-2.1c0.1-0.1,0.1-0.2,0.1-0.2c0-0.1,0-0.1,0-0.2c0-0.2,0-0.3-0.1-0.4
			c-0.1-0.1-0.2-0.2-0.4-0.2c-0.2,0-0.3,0.1-0.4,0.2c-0.1,0.1-0.2,0.3-0.2,0.5h-0.6c0-0.4,0.1-0.6,0.3-0.9c0.2-0.2,0.5-0.3,0.8-0.3
			c0.4,0,0.6,0.1,0.9,0.4c0.2,0.2,0.3,0.5,0.3,0.9c0,0.3-0.1,0.5-0.2,0.7l-1.3,1.7h1.6v0.6h-2.4V52.7z"/>
	</g>
</g>
</svg>
