<?xml version="1.0" standalone="no"?><!DOCTYPE svg PUBLIC "-//W3C//DTD SVG 1.1//EN" "http://www.w3.org/Graphics/SVG/1.1/DTD/svg11.dtd"><svg t="1532485259589" class="icon" style="" viewBox="0 0 1024 1024" version="1.1" xmlns="http://www.w3.org/2000/svg" p-id="3225" xmlns:xlink="http://www.w3.org/1999/xlink" width="32" height="32"><defs><style type="text/css"></style></defs><path d="M512 0C229.23 0 0 229.228 0 512s229.23 512 512 512 512-229.23 512-512S794.77 0 512 0z m0 993.808C245.904 993.808 30.192 778.094 30.192 512S245.904 30.192 512 30.192c266.098 0 481.81 215.712 481.81 481.808S778.098 993.808 512 993.808z" fill="#666666" p-id="3226"></path><path d="M659.312 686.652L313.95 446.576c-10.334-7.184-24.008-5.392-30.538 4.004-6.532 9.396-3.45 22.836 6.888 30.022l128.08 89.034c-5.05 1.024-9.616 3.942-12.506 8.524l-48.87 77.468H265.54v-142.964c0-16.592-9.276-30.042-20.72-30.042s-20.72 13.45-20.72 30.042v219.628c0 16.594 9.276 30.042 20.72 30.042s20.72-13.45 20.72-30.042v-35.222h99.454a18.878 18.878 0 0 0 11.094-3.61c4.532-1.23 8.58-4.012 11.222-8.2l53.614-84.992c2.534-4.02 3.36-8.648 2.68-13.098l192.058 133.508c10.336 7.188 24.008 5.39 30.54-4 6.536-9.396 3.45-22.838-6.89-30.026zM786.008 534.458L381.692 266.852c-14.3-9.494-33.59-5.596-43.084 8.704l-53.436 78.118c-9.492 14.3-5.596 33.588 8.706 43.082l369.79 244.69c14.3 9.492 28.512 0.762 43.082-8.708l87.96-55.196c9.498-14.304 5.594-33.588-8.702-43.084z" fill="#666666" p-id="3227"></path></svg>