<?xml version="1.0" encoding="utf-8"?>
<!-- Generator: Adobe Illustrator 22.0.1, SVG Export Plug-In . SVG Version: 6.00 Build 0)  -->
<svg version="1.0" id="图层_1" xmlns="http://www.w3.org/2000/svg" xmlns:xlink="http://www.w3.org/1999/xlink" x="0px" y="0px"
	 viewBox="0 0 60 60" style="enable-background:new 0 0 60 60;" xml:space="preserve">
<g>
	<path style="fill:#9E9E9E;" d="M1400.9,1183.5v-3h-3.4v-2h-3v0l-50,0v2l-3.4,0v3l3.4,0v3.5l-3.4,0v3l3.4,0v3.5l-3.4,0v3l3.4,0v2h3
		v0l50,0v-2h3.4v-3h-3.4v-3.5h3.4v-3h-3.4v-3.5H1400.9z M1394.5,1187v3v3.5v2l-47,0v-2v-3.5v-3v-3.5v-2l47,0v2V1187z"/>
	<g>
		<rect x="1355.4" y="1184.3" style="fill:#9E9E9E;" width="2" height="3"/>
		<rect x="1351.5" y="1189.7" style="fill:#9E9E9E;" width="2" height="3"/>
		<rect x="1359.2" y="1189.7" style="fill:#9E9E9E;" width="2" height="3"/>
	</g>
	<g>
		<rect x="1370" y="1184.3" style="fill:#9E9E9E;" width="2" height="3"/>
		<rect x="1366.2" y="1189.7" style="fill:#9E9E9E;" width="2" height="3"/>
		<rect x="1373.9" y="1189.7" style="fill:#9E9E9E;" width="2" height="3"/>
	</g>
	<g>
		<rect x="1384.7" y="1184.3" style="fill:#9E9E9E;" width="2" height="3"/>
		<rect x="1380.9" y="1189.7" style="fill:#9E9E9E;" width="2" height="3"/>
		<rect x="1388.5" y="1189.7" style="fill:#9E9E9E;" width="2" height="3"/>
	</g>
</g>
<g>
	<path style="fill:#9E9E9E;" d="M47.2,23.8l0.7,2.9c5,0.2,9.1,4.7,9.1,10.2s-4.3,10-9.8,10.2v3C54.3,49.8,60,44.1,60,37
		C60,29.8,54.3,24,47.2,23.8z"/>
	<path style="fill:#9E9E9E;" d="M12.8,50v-3C7.3,46.8,3,42.5,3,37s4.2-9.9,9.1-10.3l0.7-2.9C5.7,24,0,29.7,0,36.9
		C0,44,5.7,49.8,12.8,50z"/>
	<path style="fill:#9E9E9E;" d="M12,26.7C14.2,18.8,21.4,13,30,13s15.8,5.8,18,13.7h3C48.8,17.1,40.2,10,29.9,10s-18.8,7.1-21,16.7
		H12z"/>
	<rect x="12.8" y="47.1" style="fill:#9E9E9E;" width="34.5" height="3"/>
</g>
</svg>
