<?xml version="1.0" encoding="utf-8"?>
<!-- Generator: Adobe Illustrator 22.0.1, SVG Export Plug-In . SVG Version: 6.00 Build 0)  -->
<svg version="1.0" id="图层_1" xmlns="http://www.w3.org/2000/svg" xmlns:xlink="http://www.w3.org/1999/xlink" x="0px" y="0px"
	 viewBox="0 0 60 60" style="enable-background:new 0 0 60 60;" xml:space="preserve">
<g>
	<path style="fill:#9E9E9E;" d="M1400.9,1183.5v-3h-3.4v-2h-3v0l-50,0v2l-3.4,0v3l3.4,0v3.5l-3.4,0v3l3.4,0v3.5l-3.4,0v3l3.4,0v2h3
		v0l50,0v-2h3.4v-3h-3.4v-3.5h3.4v-3h-3.4v-3.5H1400.9z M1394.5,1187v3v3.5v2l-47,0v-2v-3.5v-3v-3.5v-2l47,0v2V1187z"/>
	<g>
		<rect x="1355.4" y="1184.3" style="fill:#9E9E9E;" width="2" height="3"/>
		<rect x="1351.5" y="1189.7" style="fill:#9E9E9E;" width="2" height="3"/>
		<rect x="1359.2" y="1189.7" style="fill:#9E9E9E;" width="2" height="3"/>
	</g>
	<g>
		<rect x="1370" y="1184.3" style="fill:#9E9E9E;" width="2" height="3"/>
		<rect x="1366.2" y="1189.7" style="fill:#9E9E9E;" width="2" height="3"/>
		<rect x="1373.9" y="1189.7" style="fill:#9E9E9E;" width="2" height="3"/>
	</g>
	<g>
		<rect x="1384.7" y="1184.3" style="fill:#9E9E9E;" width="2" height="3"/>
		<rect x="1380.9" y="1189.7" style="fill:#9E9E9E;" width="2" height="3"/>
		<rect x="1388.5" y="1189.7" style="fill:#9E9E9E;" width="2" height="3"/>
	</g>
</g>
<g>
	<rect x="0" y="52" style="fill:#9E9E9E;" width="60" height="3"/>
	<rect x="0" y="30" style="fill:#9E9E9E;" width="60" height="3"/>
	<rect x="7" y="41" style="fill:#9E9E9E;" width="16" height="3"/>
	
		<rect x="-2.5" y="17.5" transform="matrix(-1.298577e-13 1 -1 -1.298577e-13 30.5 7.5)" style="fill:#9E9E9E;" width="28" height="3"/>
	
		<rect x="9.8" y="17.5" transform="matrix(-1.298577e-13 1 -1 -1.298577e-13 42.8333 -4.8333)" style="fill:#9E9E9E;" width="28" height="3"/>
	
		<rect x="22.2" y="17.5" transform="matrix(-1.298577e-13 1 -1 -1.298577e-13 55.1667 -17.1667)" style="fill:#9E9E9E;" width="28" height="3"/>
	
		<rect x="34.5" y="17.5" transform="matrix(-1.298577e-13 1 -1 -1.298577e-13 67.5 -29.5)" style="fill:#9E9E9E;" width="28" height="3"/>
	
		<rect x="46" y="41" transform="matrix(-1.458450e-13 1 -1 -1.458450e-13 101.0089 -15.9911)" style="fill:#9E9E9E;" width="25" height="3"/>
	
		<rect x="-11" y="41" transform="matrix(-1.458450e-13 1 -1 -1.458450e-13 44.0089 41.0089)" style="fill:#9E9E9E;" width="25" height="3"/>
</g>
</svg>
