<?xml version="1.0" encoding="utf-8"?>
<!-- Generator: Adobe Illustrator 22.0.1, SVG Export Plug-In . SVG Version: 6.00 Build 0)  -->
<svg version="1.0" id="图层_1" xmlns="http://www.w3.org/2000/svg" xmlns:xlink="http://www.w3.org/1999/xlink" x="0px" y="0px"
	 viewBox="0 0 186 172" style="enable-background:new 0 0 186 172;" xml:space="preserve">
<path style="fill:#E8E8E8;" d="M104.4,0.8c-3,0-5.3,2.4-5.3,5.3c0,3,2.4,5.3,5.3,5.3c3,0,5.3-2.4,5.3-5.3
	C109.8,3.2,107.4,0.8,104.4,0.8z M104.4,10.5c-2.4,0-4.4-2-4.4-4.4s2-4.4,4.4-4.4s4.4,2,4.4,4.4S106.9,10.5,104.4,10.5z"/>
<g>
	<path style="fill:#F0F3F4;" d="M157.6,105c0.6-4,1-8.1,1-12.3c0-42.8-34.7-77.5-77.5-77.5c-13.5,0-26.2,3.5-37.3,9.5l4,4
		c2.5,2.5,2.5,6.7,0,9.2c-2.4,2.4-6.3,2.5-8.9,0.3L27.3,26.6c-2.5-2.5-6.7-2.5-9.2,0c-2.5,2.5-2.5,6.7,0,9.2l5.2,5.2c0,0,0,0,0,0
		l3.7,3.7c2.5,2.5,2.5,6.7,0,9.2c-2.3,2.3-5.9,2.5-8.4,0.7l-2.9-2.9c-3.3-3.3-8.7-3.3-12,0s-3.3,8.7,0,12l4,4
		C5,75.6,3.6,84,3.6,92.7c0,26.9,13.7,50.6,34.5,64.5H124c5-3.3,9.5-7.1,13.6-11.5l0.3,0.3c3.3,3.3,8.7,3.3,12,0s3.3-8.7,0-12
		l-12.7-12.7c-1.8-2.5-1.6-6.1,0.7-8.4v0c2.5-2.5,6.7-2.5,9.2,0l6.7,6.7c0,0,0,0,0,0l5.7,5.7c2.5,2.5,6.7,2.5,9.2,0
		c2.5-2.5,2.5-6.7,0-9.2L157.6,105z"/>
	
		<ellipse transform="matrix(0.7071 -0.7071 0.7071 0.7071 -7.7643 10.8646)" style="fill:#F0F3F4;" cx="9.2" cy="14.8" rx="6.4" ry="6.4"/>
	
		<ellipse transform="matrix(0.3827 -0.9239 0.9239 0.3827 -14.3645 247.9682)" style="fill:#F0F3F4;" cx="178.4" cy="134.7" rx="6.4" ry="6.4"/>
</g>
<g>
	<path style="fill:#E8E8E8;" d="M60.3,7.3h-6.1c-0.7,0-1.2-0.5-1.2-1.2v0c0-0.7,0.5-1.2,1.2-1.2h6.1c0.7,0,1.2,0.5,1.2,1.2v0
		C61.5,6.8,61,7.3,60.3,7.3z"/>
	<path style="fill:#E8E8E8;" d="M56.1,9.2V3.1c0-0.7,0.5-1.2,1.2-1.2l0,0c0.7,0,1.2,0.5,1.2,1.2v6.1c0,0.7-0.5,1.2-1.2,1.2l0,0
		C56.6,10.4,56.1,9.8,56.1,9.2z"/>
</g>
<g>
	<path style="fill:#E8E8E8;" d="M140.6,27.4h-6.1c-0.7,0-1.2-0.5-1.2-1.2v0c0-0.7,0.5-1.2,1.2-1.2h6.1c0.7,0,1.2,0.5,1.2,1.2v0
		C141.8,26.9,141.2,27.4,140.6,27.4z"/>
	<path style="fill:#E8E8E8;" d="M136.3,29.3v-6.1c0-0.7,0.5-1.2,1.2-1.2l0,0c0.7,0,1.2,0.5,1.2,1.2v6.1c0,0.7-0.5,1.2-1.2,1.2l0,0
		C136.9,30.5,136.3,29.9,136.3,29.3z"/>
</g>
<g>
	<path style="fill:#E2E0E0;" d="M143.7,157.2h-128c-0.6,0-1-0.4-1-1l0,0c0-0.6,0.4-1,1-1h128c0.6,0,1,0.4,1,1l0,0
		C144.7,156.8,144.3,157.2,143.7,157.2z"/>
	<path style="fill:#E2E0E0;" d="M160.2,157.2h-8c-0.6,0-1-0.4-1-1l0,0c0-0.6,0.4-1,1-1h8c0.6,0,1,0.4,1,1l0,0
		C161.2,156.8,160.8,157.2,160.2,157.2z"/>
	<g>
		<path style="fill:#E2E0E0;" d="M94.7,164.2h-3.2c-0.6,0-1-0.4-1-1v0c0-0.6,0.4-1,1-1h3.2c0.6,0,1,0.4,1,1v0
			C95.7,163.8,95.3,164.2,94.7,164.2z"/>
		<path style="fill:#E2E0E0;" d="M130.6,164.2h-25.2c-0.6,0-1-0.4-1-1v0c0-0.6,0.4-1,1-1h25.2c0.6,0,1,0.4,1,1v0
			C131.6,163.8,131.2,164.2,130.6,164.2z"/>
		<path style="fill:#E2E0E0;" d="M79.9,164.2H34.7c-0.6,0-1-0.4-1-1v0c0-0.6,0.4-1,1-1h45.2c0.6,0,1,0.4,1,1v0
			C80.9,163.8,80.4,164.2,79.9,164.2z"/>
	</g>
	<g>
		<path style="fill:#E2E0E0;" d="M37.7,171.2H11.6c-0.6,0-1-0.4-1-1v0c0-0.6,0.4-1,1-1h26.2c0.6,0,1,0.4,1,1v0
			C38.7,170.8,38.3,171.2,37.7,171.2z"/>
		<path style="fill:#E2E0E0;" d="M158.1,171.2H57.9c-0.6,0-1-0.4-1-1v0c0-0.6,0.4-1,1-1h100.2c0.6,0,1,0.4,1,1v0
			C159.1,170.8,158.6,171.2,158.1,171.2z"/>
	</g>
</g>
<g>
	<path style="fill:#D8D8D8;" d="M27.9,105.8h-6.1c-0.7,0-1.2-0.5-1.2-1.2v0c0-0.7,0.5-1.2,1.2-1.2h6.1c0.7,0,1.2,0.5,1.2,1.2v0
		C29.1,105.3,28.5,105.8,27.9,105.8z"/>
	<path style="fill:#D8D8D8;" d="M23.6,107.6v-6.1c0-0.7,0.5-1.2,1.2-1.2h0c0.7,0,1.2,0.5,1.2,1.2v6.1c0,0.7-0.5,1.2-1.2,1.2h0
		C24.1,108.8,23.6,108.3,23.6,107.6z"/>
</g>
<g>
	<path style="fill:#D8D8D8;" d="M128.3,60.3L124,56c-0.5-0.5-0.5-1.2,0-1.7l0,0c0.5-0.5,1.2-0.5,1.7,0l4.3,4.3
		c0.5,0.5,0.5,1.2,0,1.7v0C129.6,60.7,128.8,60.7,128.3,60.3z"/>
	<path style="fill:#D8D8D8;" d="M124,58.5l4.3-4.3c0.5-0.5,1.2-0.5,1.7,0l0,0c0.5,0.5,0.5,1.2,0,1.7l-4.3,4.3
		c-0.5,0.5-1.2,0.5-1.7,0v0C123.5,59.8,123.5,59,124,58.5z"/>
</g>
<path style="fill:#D8D8D8;" d="M73.2,27.4c-3,0-5.3,2.4-5.3,5.3c0,3,2.4,5.3,5.3,5.3c3,0,5.3-2.4,5.3-5.3
	C78.5,29.8,76.2,27.4,73.2,27.4z M73.2,37.1c-2.4,0-4.4-2-4.4-4.4s2-4.4,4.4-4.4s4.4,2,4.4,4.4S75.6,37.1,73.2,37.1z"/>
<path style="fill:#D8D8D8;" d="M19.9,59.6c-3,0-5.3,2.4-5.3,5.3c0,3,2.4,5.3,5.3,5.3c3,0,5.3-2.4,5.3-5.3
	C25.2,62,22.8,59.6,19.9,59.6z M19.9,69.3c-2.4,0-4.4-2-4.4-4.4c0-2.4,2-4.4,4.4-4.4s4.4,2,4.4,4.4C24.2,67.3,22.3,69.3,19.9,69.3z"
	/>
<path style="fill:#D8D8D8;" d="M137.5,91.7c-3,0-5.3,2.4-5.3,5.3c0,3,2.4,5.3,5.3,5.3c3,0,5.3-2.4,5.3-5.3
	C142.9,94.1,140.5,91.7,137.5,91.7z M137.5,101.5c-2.4,0-4.4-2-4.4-4.4s2-4.4,4.4-4.4s4.4,2,4.4,4.4S139.9,101.5,137.5,101.5z"/>
<path style="fill:#D8D8D8;" d="M108,138.5c-1.5,0-2.8,1.2-2.8,2.8c0,1.5,1.2,2.8,2.8,2.8s2.8-1.2,2.8-2.8
	C110.7,139.8,109.5,138.5,108,138.5z M108,143.1c-1,0-1.8-0.8-1.8-1.8s0.8-1.8,1.8-1.8s1.8,0.8,1.8,1.8S109,143.1,108,143.1z"/>
<path style="fill:#D8D8D8;" d="M52.8,128.8c-1.5,0-2.8,1.2-2.8,2.8c0,1.5,1.2,2.8,2.8,2.8s2.8-1.2,2.8-2.8
	C55.5,130,54.3,128.8,52.8,128.8z M52.8,133.3c-1,0-1.8-0.8-1.8-1.8s0.8-1.8,1.8-1.8s1.8,0.8,1.8,1.8S53.8,133.3,52.8,133.3z"/>
<g>
	<g>
		<g>
			<rect x="54.4" y="68.3" style="fill:#FFFFFF;" width="48.7" height="14"/>
			<g>
				
					<rect x="94.8" y="74" transform="matrix(-1.836970e-16 1 -1 -1.836970e-16 177.0916 -26.4486)" style="fill:#D8D8D8;" width="14" height="2.6"/>
				
					<rect x="48.7" y="74" transform="matrix(-1.836970e-16 1 -1 -1.836970e-16 131.022 19.621)" style="fill:#D8D8D8;" width="14" height="2.6"/>
				<g>
					<rect x="54.4" y="68.3" style="fill:#D8D8D8;" width="48.7" height="2.6"/>
				</g>
				<g>
					<rect x="54.4" y="79.7" style="fill:#D8D8D8;" width="48.7" height="2.6"/>
				</g>
				<circle style="fill:#D8D8D8;" cx="62.2" cy="75.3" r="1.2"/>
				<circle style="fill:#D8D8D8;" cx="66.6" cy="75.3" r="1.2"/>
				<circle style="fill:#D8D8D8;" cx="71" cy="75.3" r="1.2"/>
				<rect x="89.5" y="74.3" style="fill:#D8D8D8;" width="8" height="2"/>
			</g>
		</g>
		<g>
			<rect x="54.4" y="86.3" style="fill:#FFFFFF;" width="48.7" height="14"/>
			<g>
				
					<rect x="94.8" y="92" transform="matrix(-1.836970e-16 1 -1 -1.836970e-16 195.0916 -8.4486)" style="fill:#D8D8D8;" width="14" height="2.6"/>
				
					<rect x="48.7" y="92" transform="matrix(-1.836970e-16 1 -1 -1.836970e-16 149.022 37.621)" style="fill:#D8D8D8;" width="14" height="2.6"/>
				<g>
					<rect x="54.4" y="86.3" style="fill:#D8D8D8;" width="48.7" height="2.6"/>
				</g>
				<g>
					<rect x="54.4" y="97.7" style="fill:#D8D8D8;" width="48.7" height="2.6"/>
				</g>
				<circle style="fill:#D8D8D8;" cx="62.2" cy="93.3" r="1.2"/>
				<circle style="fill:#D8D8D8;" cx="66.6" cy="93.3" r="1.2"/>
				<circle style="fill:#D8D8D8;" cx="71" cy="93.3" r="1.2"/>
				<rect x="89.5" y="92.3" style="fill:#D8D8D8;" width="8" height="2"/>
			</g>
		</g>
		<g>
			<rect x="54.4" y="104.3" style="fill:#FFFFFF;" width="48.7" height="14"/>
			<g>
				
					<rect x="94.8" y="110" transform="matrix(-1.836970e-16 1 -1 -1.836970e-16 213.0916 9.5514)" style="fill:#D8D8D8;" width="14" height="2.6"/>
				
					<rect x="48.7" y="110" transform="matrix(-1.836970e-16 1 -1 -1.836970e-16 167.022 55.621)" style="fill:#D8D8D8;" width="14" height="2.6"/>
				<g>
					<rect x="54.4" y="104.3" style="fill:#D8D8D8;" width="48.7" height="2.6"/>
				</g>
				<g>
					<rect x="54.4" y="115.7" style="fill:#D8D8D8;" width="48.7" height="2.6"/>
				</g>
				<circle style="fill:#D8D8D8;" cx="62.2" cy="111.3" r="1.2"/>
				<circle style="fill:#D8D8D8;" cx="66.6" cy="111.3" r="1.2"/>
				<circle style="fill:#D8D8D8;" cx="71" cy="111.3" r="1.2"/>
				<rect x="89.5" y="110.3" style="fill:#D8D8D8;" width="8" height="2"/>
			</g>
		</g>
	</g>
	<g>
		<circle style="fill:#FFFFFF;" cx="100.5" cy="76.3" r="13"/>
		<path style="fill:#D8D8D8;" d="M100.5,63.3c-7.2,0-13,5.8-13,13c0,7.2,5.8,13,13,13s13-5.8,13-13
			C113.5,69.1,107.6,63.3,100.5,63.3z M100.5,86.3c-5.5,0-10-4.5-10-10c0-5.5,4.5-10,10-10s10,4.5,10,10
			C110.5,81.8,106,86.3,100.5,86.3z"/>
		
			<rect x="94.9" y="75.2" transform="matrix(-0.7071 -0.7071 0.7071 -0.7071 117.2687 201.9757)" style="fill:#D8D8D8;" width="11.1" height="3"/>
		
			<rect x="94.9" y="75.2" transform="matrix(0.7071 -0.7071 0.7071 0.7071 -24.8101 93.5045)" style="fill:#D8D8D8;" width="11.1" height="3"/>
	</g>
</g>
</svg>
