<?xml version="1.0" encoding="utf-8"?>
<!-- Generator: Adobe Illustrator 22.0.1, SVG Export Plug-In . SVG Version: 6.00 Build 0)  -->
<svg version="1.0" id="图层_1" xmlns="http://www.w3.org/2000/svg" xmlns:xlink="http://www.w3.org/1999/xlink" x="0px" y="0px"
	 viewBox="0 0 361 61" style="enable-background:new 0 0 361 61;" xml:space="preserve">
<path style="fill:#DBDBDB;" d="M358.7,0H2.3C1.2,0,0.2,0.9,0.2,2.1v56.8C0.2,60,1.2,61,2.3,61h356.4c1.2,0,2.1-0.9,2.1-2.1V2.1
	C360.8,0.9,359.9,0,358.7,0z M359.8,58.9c0,0.6-0.5,1.1-1.1,1.1H2.3c-0.6,0-1.1-0.5-1.1-1.1V2.1c0-0.6,0.5-1.1,1.1-1.1h356.4
	c0.6,0,1.1,0.5,1.1,1.1V58.9z"/>
<g>
	<path style="fill:#DBDBDB;" d="M82.1,14.1h-4.5V7h1.1v6.1h3.4V14.1z"/>
	<path style="fill:#DBDBDB;" d="M88.5,14.1h-1.1l-0.5-1.4h-2.8l-0.5,1.4h-1.1L85.1,7H86L88.5,14.1z M86.6,11.7l-1.1-3.1l-1.1,3.1
		H86.6z"/>
	<path style="fill:#DBDBDB;" d="M94.9,14.1h-1l-3.3-5v5h-1.1V7h1l3.3,5V7h1.1V14.1z"/>
	<path style="fill:#DBDBDB;" d="M99.3,14.1h-1v-6l-1.4,1.2V8.2L98.3,7h1V14.1z"/>
</g>
<g onclick="simulationClick('lan1')">
	<polygon style="fill:#FAFAFA;" points="106.1,50.7 71,50.7 71,32.5 74.3,32.5 74.3,28 77.7,28 77.7,25 99.5,25 99.5,28 102.9,28 
		102.9,32.5 106.1,32.5 	"/>
	<g>
		<path style="fill:#DBDBDB;" d="M67.5,21.5v32.8h42.1V21.5H67.5z M108.5,53.1H68.7V22.6h39.8V53.1z"/>
		<path style="fill:#DBDBDB;" d="M105,50.7h1.2v-1.2V33.6v-1.2H105h-2.1V28h0h-1.2h-2.2v-1.9V25h-1.2H78.9h-1.2v1.2V28h-2.2h-1.2h0
			v4.5h-2.1H71v1.2v15.9v1.2h1.2H105z M72.2,33.6h3.3v-1.2v-3.3h3.4V28v-1.9h19.4V28v1.2h3.4v3.3v1.2h3.3v15.9H72.2V33.6z"/>
	</g>
</g>
<g>
	<path style="fill:#DBDBDB;" d="M142.7,14.1h-4.5V7h1.1v6.1h3.4V14.1z"/>
	<path style="fill:#DBDBDB;" d="M149.1,14.1H148l-0.5-1.4h-2.8l-0.5,1.4h-1.1l2.6-7.1h0.9L149.1,14.1z M147.2,11.7l-1.1-3.1
		l-1.1,3.1H147.2z"/>
	<path style="fill:#DBDBDB;" d="M155.5,14.1h-1l-3.3-5v5h-1.1V7h1l3.3,5V7h1.1V14.1z"/>
	<path style="fill:#DBDBDB;" d="M161.1,14.1H157v-0.9l2.7-3.3c0.3-0.3,0.4-0.6,0.4-0.9c0-0.2,0-0.4-0.1-0.6s-0.2-0.3-0.4-0.4
		c-0.2-0.1-0.3-0.1-0.6-0.1c-0.3,0-0.5,0.1-0.7,0.3c-0.2,0.2-0.3,0.5-0.3,0.8h-1c0-0.3,0.1-0.6,0.2-0.8c0.1-0.2,0.2-0.5,0.4-0.6
		c0.2-0.2,0.4-0.3,0.6-0.4c0.2-0.1,0.5-0.1,0.8-0.1c0.4,0,0.8,0.1,1.1,0.2c0.3,0.2,0.5,0.4,0.7,0.7c0.2,0.3,0.3,0.6,0.3,1
		c0,0.3-0.1,0.5-0.2,0.8c-0.1,0.2-0.3,0.5-0.5,0.8l-2.2,2.7h2.9V14.1z"/>
</g>
<g onclick="simulationClick('Lan2')">
	<polygon style="fill:#FAFAFA;" points="167.3,50.7 132.1,50.7 132.1,32.5 135.4,32.5 135.4,28 138.8,28 138.8,25 160.6,25 
		160.6,28 164,28 164,32.5 167.3,32.5 	"/>
	<g>
		<path style="fill:#DBDBDB;" d="M128.6,21.5v32.8h42.1V21.5H128.6z M169.6,53.1h-39.8V22.6h39.8V53.1z"/>
		<path style="fill:#DBDBDB;" d="M166.1,50.7h1.2v-1.2V33.6v-1.2h-1.2H164V28h0h-1.2h-2.2v-1.9V25h-1.2H140h-1.2v1.2V28h-2.2h-1.2h0
			v4.5h-2.1h-1.2v1.2v15.9v1.2h1.2H166.1z M133.3,33.6h3.3v-1.2v-3.3h3.4V28v-1.9h19.4V28v1.2h3.4v3.3v1.2h3.3v15.9h-32.8V33.6z"/>
	</g>
</g>
<g>
	<path style="fill:#DBDBDB;" d="M177,6.9h2.7c0.6,0,1,0.2,1.4,0.5c0.4,0.4,0.7,0.9,0.7,1.5c0,1-0.5,1.6-1.3,2L182,14h-1.2l-1.4-3
		h-1.3v3h-1V6.9z M178.1,10h1.6c0.4,0,0.7-0.1,0.9-0.3c0.2-0.2,0.3-0.5,0.3-0.8c0-0.4-0.1-0.6-0.3-0.8c-0.2-0.1-0.4-0.2-0.8-0.2
		h-1.6V10z"/>
	<path style="fill:#DBDBDB;" d="M183.6,12.3c0.5,0.5,1.2,0.7,1.9,0.7c0.9,0,1.3-0.3,1.4-1c0-0.5-0.3-0.8-0.9-1
		c-0.3,0-0.6-0.1-0.9-0.1c-0.6-0.1-1-0.3-1.3-0.7c-0.3-0.4-0.5-0.8-0.5-1.3c0-0.6,0.2-1.1,0.6-1.5c0.4-0.4,0.9-0.6,1.6-0.6
		c0.9,0,1.6,0.3,2.2,0.7l-0.6,0.9c-0.5-0.3-1.1-0.5-1.7-0.5c-0.3,0-0.6,0.1-0.8,0.2c-0.2,0.2-0.3,0.4-0.3,0.8c0,0.2,0.1,0.4,0.2,0.6
		c0.2,0.2,0.4,0.3,0.7,0.3c0.2,0,0.4,0.1,0.8,0.1c0.6,0.1,1.1,0.3,1.4,0.7c0.3,0.4,0.5,0.8,0.5,1.3c0,1.4-0.8,2-2.4,2.1
		c-1,0-1.9-0.3-2.6-1L183.6,12.3z"/>
	<path style="fill:#DBDBDB;" d="M189,12l2.3-5.1h1.1L190,12h1.8v-2h1v2h0.5V13h-0.5V14h-1V13H189V12z"/>
	<path style="fill:#DBDBDB;" d="M194.2,11.9c0-0.7,0.3-1.2,0.8-1.6c-0.2-0.2-0.4-0.4-0.5-0.6c-0.1-0.2-0.2-0.5-0.2-0.8
		c0-0.6,0.2-1.1,0.6-1.5c0.4-0.4,0.8-0.6,1.4-0.6c0.6,0,1,0.2,1.4,0.6c0.4,0.4,0.6,0.9,0.6,1.5c0,0.3-0.1,0.6-0.2,0.8
		c-0.1,0.2-0.3,0.5-0.5,0.6c0.5,0.4,0.8,0.9,0.8,1.6c0,0.6-0.2,1.1-0.6,1.5c-0.4,0.4-0.9,0.6-1.5,0.6c-0.6,0-1.1-0.2-1.5-0.6
		C194.4,13.1,194.2,12.6,194.2,11.9z M195.2,11.9c0,0.3,0.1,0.6,0.3,0.8c0.2,0.2,0.5,0.3,0.8,0.3c0.3,0,0.6-0.1,0.8-0.3
		c0.2-0.2,0.3-0.5,0.3-0.8c0-0.3-0.1-0.6-0.3-0.8c-0.2-0.2-0.5-0.3-0.8-0.3c-0.3,0-0.6,0.1-0.8,0.3
		C195.3,11.3,195.2,11.6,195.2,11.9z M195.3,8.9c0,0.3,0.1,0.6,0.3,0.7c0.2,0.2,0.4,0.3,0.7,0.3c0.3,0,0.5-0.1,0.7-0.3
		c0.2-0.2,0.3-0.4,0.3-0.7c0-0.3-0.1-0.6-0.3-0.8c-0.2-0.2-0.4-0.2-0.7-0.2c-0.3,0-0.5,0.1-0.7,0.2C195.4,8.3,195.3,8.6,195.3,8.9z"
		/>
	<path style="fill:#DBDBDB;" d="M199.6,6.9h3.6v1h-2.7v1.6c0.3-0.3,0.7-0.4,1.1-0.4c0.3,0,0.5,0.1,0.7,0.1c0.2,0.1,0.4,0.2,0.5,0.4
		c0.2,0.2,0.3,0.4,0.4,0.7c0,0.1,0.1,0.3,0.1,0.5c0,0.2,0,0.5,0,0.8c0,0.5,0,0.8-0.1,1.1c-0.1,0.2-0.2,0.5-0.3,0.6
		c-0.1,0.2-0.3,0.4-0.6,0.5c-0.3,0.2-0.5,0.2-0.9,0.2c-0.5,0-0.9-0.1-1.3-0.4c-0.4-0.3-0.6-0.8-0.7-1.4h1c0.1,0.5,0.4,0.8,1,0.8
		c0.2,0,0.4,0,0.6-0.1c0.1-0.1,0.2-0.2,0.3-0.4c0.1-0.2,0.1-0.3,0.1-0.5c0-0.2,0-0.3,0-0.5c0-0.4-0.1-0.7-0.2-1
		c-0.1-0.1-0.2-0.2-0.3-0.3c-0.1-0.1-0.3-0.1-0.5-0.1c-0.2,0-0.3,0-0.5,0.1c-0.1,0.1-0.3,0.2-0.4,0.5h-0.9V6.9z"/>
	<path style="fill:#DBDBDB;" d="M206.7,6.9h0.7l-2.3,7.2h-0.7L206.7,6.9z"/>
	<path style="fill:#DBDBDB;" d="M208.7,6.9h2.7c0.6,0,1,0.2,1.4,0.5c0.4,0.4,0.7,0.9,0.7,1.5c0,1-0.5,1.6-1.3,2l1.6,3.1h-1.2l-1.4-3
		h-1.3v3h-1V6.9z M209.8,10h1.6c0.4,0,0.7-0.1,0.9-0.3c0.2-0.2,0.3-0.5,0.3-0.8c0-0.4-0.1-0.6-0.3-0.8c-0.2-0.1-0.4-0.2-0.8-0.2
		h-1.6V10z"/>
	<path style="fill:#DBDBDB;" d="M215.3,12.3c0.5,0.5,1.2,0.7,1.9,0.7c0.9,0,1.3-0.3,1.4-1c0-0.5-0.3-0.8-0.9-1
		c-0.3,0-0.6-0.1-0.9-0.1c-0.6-0.1-1-0.3-1.3-0.7c-0.3-0.4-0.5-0.8-0.5-1.3c0-0.6,0.2-1.1,0.6-1.5c0.4-0.4,0.9-0.6,1.6-0.6
		c0.9,0,1.6,0.3,2.2,0.7l-0.6,0.9c-0.5-0.3-1.1-0.5-1.7-0.5c-0.3,0-0.6,0.1-0.8,0.2C216.1,8.4,216,8.6,216,9c0,0.2,0.1,0.4,0.2,0.6
		c0.2,0.2,0.4,0.3,0.7,0.3c0.2,0,0.4,0.1,0.8,0.1c0.6,0.1,1.1,0.3,1.4,0.7c0.3,0.4,0.5,0.8,0.5,1.3c0,1.4-0.8,2-2.4,2.1
		c-1,0-1.9-0.3-2.6-1L215.3,12.3z"/>
	<path style="fill:#DBDBDB;" d="M220.9,13.1l2.7-3.5c0.1-0.1,0.2-0.3,0.2-0.4c0-0.1,0-0.2,0-0.3c0-0.3-0.1-0.5-0.2-0.7
		c-0.2-0.2-0.4-0.3-0.7-0.3c-0.3,0-0.5,0.1-0.7,0.3c-0.2,0.2-0.3,0.4-0.3,0.8h-1c0-0.6,0.2-1.1,0.6-1.5c0.4-0.4,0.8-0.6,1.3-0.6
		c0.6,0,1.1,0.2,1.4,0.6c0.4,0.4,0.6,0.9,0.6,1.4c0,0.5-0.1,0.9-0.4,1.2l-2.2,2.9h2.6v1h-3.9V13.1z"/>
	<path style="fill:#DBDBDB;" d="M227.4,9.9h0.3c0.3,0,0.6-0.1,0.8-0.3c0.2-0.2,0.3-0.4,0.3-0.7c0-0.3-0.1-0.5-0.3-0.7
		c-0.2-0.2-0.4-0.3-0.7-0.3c-0.2,0-0.4,0.1-0.6,0.2c-0.2,0.1-0.3,0.4-0.4,0.6h-1c0.1-0.5,0.3-1,0.6-1.3c0.4-0.4,0.8-0.5,1.3-0.5
		c0.6,0,1.1,0.2,1.5,0.6c0.4,0.4,0.5,0.9,0.5,1.4c0,0.3,0,0.5-0.1,0.8c-0.1,0.3-0.3,0.5-0.6,0.7c0.3,0.2,0.5,0.4,0.6,0.7
		c0.1,0.3,0.2,0.6,0.2,0.9c0,0.7-0.2,1.2-0.6,1.6c-0.4,0.4-0.9,0.6-1.5,0.6c-0.5,0-0.9-0.2-1.2-0.5c-0.4-0.3-0.6-0.8-0.7-1.3h1
		c0.1,0.2,0.2,0.4,0.4,0.6c0.2,0.2,0.4,0.2,0.6,0.2c0.3,0,0.5-0.1,0.7-0.3c0.2-0.2,0.3-0.5,0.3-0.8c0-0.4-0.1-0.6-0.3-0.8
		c-0.2-0.2-0.4-0.3-0.8-0.3h-0.4V9.9z"/>
	<path style="fill:#DBDBDB;" d="M231.2,13.1l2.7-3.5c0.1-0.1,0.2-0.3,0.2-0.4c0-0.1,0-0.2,0-0.3c0-0.3-0.1-0.5-0.2-0.7
		c-0.2-0.2-0.4-0.3-0.7-0.3c-0.3,0-0.5,0.1-0.7,0.3c-0.2,0.2-0.3,0.4-0.3,0.8h-1c0-0.6,0.2-1.1,0.6-1.5c0.4-0.4,0.8-0.6,1.3-0.6
		c0.6,0,1.1,0.2,1.4,0.6c0.4,0.4,0.6,0.9,0.6,1.4c0,0.5-0.1,0.9-0.4,1.2l-2.2,2.9h2.6v1h-3.9V13.1z"/>
	<path style="fill:#DBDBDB;" d="M236.6,10.8h2.9v1h-2.9V10.8z"/>
	<path style="fill:#DBDBDB;" d="M240.8,13.1l2.7-3.5c0.1-0.1,0.2-0.3,0.2-0.4c0-0.1,0-0.2,0-0.3c0-0.3-0.1-0.5-0.2-0.7
		c-0.2-0.2-0.4-0.3-0.7-0.3c-0.3,0-0.5,0.1-0.7,0.3c-0.2,0.2-0.3,0.4-0.3,0.8h-1c0-0.6,0.2-1.1,0.6-1.5c0.4-0.4,0.8-0.6,1.3-0.6
		c0.6,0,1.1,0.2,1.4,0.6c0.4,0.4,0.6,0.9,0.6,1.4c0,0.5-0.1,0.9-0.4,1.2l-2.2,2.9h2.6v1h-3.9V13.1z"/>
</g>
<g onclick="simulationClick('rs3')">
	<polygon style="fill:#FAFAFA;" points="228.4,50.7 193.3,50.7 193.3,32.5 196.6,32.5 196.6,28 200,28 200,25 221.7,25 221.7,28 
		225.1,28 225.1,32.5 228.4,32.5 	"/>
	<g>
		<path style="fill:#DBDBDB;" d="M189.8,21.5v32.8h42.1V21.5H189.8z M230.7,53.1h-39.8V22.6h39.8V53.1z"/>
		<path style="fill:#DBDBDB;" d="M227.2,50.7h1.2v-1.2V33.6v-1.2h-1.2h-2.1V28h0h-1.2h-2.2v-1.9V25h-1.2h-19.4H200v1.2V28h-2.2h-1.2
			h0v4.5h-2.1h-1.2v1.2v15.9v1.2h1.2H227.2z M194.4,33.6h3.3v-1.2v-3.3h3.4V28v-1.9h19.4V28v1.2h3.4v3.3v1.2h3.3v15.9h-32.8V33.6z"
			/>
	</g>
</g>
<g>
	<path style="fill:#DBDBDB;" d="M270.5,6.9h2.7c0.6,0,1,0.2,1.4,0.5c0.4,0.4,0.7,0.9,0.7,1.5c0,1-0.5,1.6-1.3,2l1.6,3.1h-1.2l-1.4-3
		h-1.3v3h-1V6.9z M271.6,10h1.6c0.4,0,0.7-0.1,0.9-0.3c0.2-0.2,0.3-0.5,0.3-0.8c0-0.4-0.1-0.6-0.3-0.8c-0.2-0.1-0.4-0.2-0.8-0.2
		h-1.6V10z"/>
	<path style="fill:#DBDBDB;" d="M277.1,12.3c0.5,0.5,1.2,0.7,1.9,0.7c0.9,0,1.3-0.3,1.4-1c0-0.5-0.3-0.8-0.9-1
		c-0.3,0-0.6-0.1-0.9-0.1c-0.6-0.1-1-0.3-1.3-0.7c-0.3-0.4-0.5-0.8-0.5-1.3c0-0.6,0.2-1.1,0.6-1.5c0.4-0.4,0.9-0.6,1.6-0.6
		c0.9,0,1.6,0.3,2.2,0.7l-0.6,0.9c-0.5-0.3-1.1-0.5-1.7-0.5c-0.3,0-0.6,0.1-0.8,0.2c-0.2,0.2-0.3,0.4-0.3,0.8c0,0.2,0.1,0.4,0.2,0.6
		c0.2,0.2,0.4,0.3,0.7,0.3c0.2,0,0.4,0.1,0.8,0.1c0.6,0.1,1.1,0.3,1.4,0.7c0.3,0.4,0.5,0.8,0.5,1.3c0,1.4-0.8,2-2.4,2.1
		c-1,0-1.9-0.3-2.6-1L277.1,12.3z"/>
	<path style="fill:#DBDBDB;" d="M282.5,12l2.3-5.1h1.1l-2.3,5.1h1.8v-2h1v2h0.5V13h-0.5V14h-1V13h-2.9V12z"/>
	<path style="fill:#DBDBDB;" d="M287.7,11.9c0-0.7,0.3-1.2,0.8-1.6c-0.2-0.2-0.4-0.4-0.5-0.6c-0.1-0.2-0.2-0.5-0.2-0.8
		c0-0.6,0.2-1.1,0.6-1.5c0.4-0.4,0.8-0.6,1.4-0.6c0.6,0,1,0.2,1.4,0.6c0.4,0.4,0.6,0.9,0.6,1.5c0,0.3-0.1,0.6-0.2,0.8
		c-0.1,0.2-0.3,0.5-0.5,0.6c0.5,0.4,0.8,0.9,0.8,1.6c0,0.6-0.2,1.1-0.6,1.5c-0.4,0.4-0.9,0.6-1.5,0.6c-0.6,0-1.1-0.2-1.5-0.6
		C287.9,13.1,287.7,12.6,287.7,11.9z M288.7,11.9c0,0.3,0.1,0.6,0.3,0.8c0.2,0.2,0.5,0.3,0.8,0.3c0.3,0,0.6-0.1,0.8-0.3
		c0.2-0.2,0.3-0.5,0.3-0.8c0-0.3-0.1-0.6-0.3-0.8c-0.2-0.2-0.5-0.3-0.8-0.3c-0.3,0-0.6,0.1-0.8,0.3
		C288.8,11.3,288.7,11.6,288.7,11.9z M288.8,8.9c0,0.3,0.1,0.6,0.3,0.7c0.2,0.2,0.4,0.3,0.7,0.3c0.3,0,0.5-0.1,0.7-0.3
		c0.2-0.2,0.3-0.4,0.3-0.7c0-0.3-0.1-0.6-0.3-0.8c-0.2-0.2-0.4-0.2-0.7-0.2c-0.3,0-0.5,0.1-0.7,0.2C288.9,8.3,288.8,8.6,288.8,8.9z"
		/>
	<path style="fill:#DBDBDB;" d="M293.1,6.9h3.6v1h-2.7v1.6c0.3-0.3,0.7-0.4,1.1-0.4c0.3,0,0.5,0.1,0.7,0.1c0.2,0.1,0.4,0.2,0.5,0.4
		c0.2,0.2,0.3,0.4,0.4,0.7c0,0.1,0.1,0.3,0.1,0.5c0,0.2,0,0.5,0,0.8c0,0.5,0,0.8-0.1,1.1c-0.1,0.2-0.2,0.5-0.3,0.6
		c-0.1,0.2-0.3,0.4-0.6,0.5c-0.3,0.2-0.5,0.2-0.9,0.2c-0.5,0-0.9-0.1-1.3-0.4c-0.4-0.3-0.6-0.8-0.7-1.4h1c0.1,0.5,0.4,0.8,1,0.8
		c0.2,0,0.4,0,0.6-0.1c0.1-0.1,0.2-0.2,0.3-0.4c0.1-0.2,0.1-0.3,0.1-0.5c0-0.2,0-0.3,0-0.5c0-0.4-0.1-0.7-0.2-1
		c-0.1-0.1-0.2-0.2-0.3-0.3c-0.1-0.1-0.3-0.1-0.5-0.1c-0.2,0-0.3,0-0.5,0.1c-0.1,0.1-0.3,0.2-0.4,0.5h-0.9V6.9z"/>
	<path style="fill:#DBDBDB;" d="M300.2,6.9h0.7l-2.3,7.2h-0.7L300.2,6.9z"/>
	<path style="fill:#DBDBDB;" d="M302.3,6.9h2.7c0.6,0,1,0.2,1.4,0.5c0.4,0.4,0.7,0.9,0.7,1.5c0,1-0.5,1.6-1.3,2l1.6,3.1H306l-1.4-3
		h-1.3v3h-1V6.9z M303.3,10h1.6c0.4,0,0.7-0.1,0.9-0.3c0.2-0.2,0.3-0.5,0.3-0.8c0-0.4-0.1-0.6-0.3-0.8c-0.2-0.1-0.4-0.2-0.8-0.2
		h-1.6V10z"/>
	<path style="fill:#DBDBDB;" d="M308.8,12.3c0.5,0.5,1.2,0.7,1.9,0.7c0.9,0,1.3-0.3,1.4-1c0-0.5-0.3-0.8-0.9-1
		c-0.3,0-0.6-0.1-0.9-0.1c-0.6-0.1-1-0.3-1.3-0.7c-0.3-0.4-0.5-0.8-0.5-1.3c0-0.6,0.2-1.1,0.6-1.5c0.4-0.4,0.9-0.6,1.6-0.6
		c0.9,0,1.6,0.3,2.2,0.7l-0.6,0.9c-0.5-0.3-1.1-0.5-1.7-0.5c-0.3,0-0.6,0.1-0.8,0.2c-0.2,0.2-0.3,0.4-0.3,0.8c0,0.2,0.1,0.4,0.2,0.6
		c0.2,0.2,0.4,0.3,0.7,0.3c0.2,0,0.4,0.1,0.8,0.1c0.6,0.1,1.1,0.3,1.4,0.7c0.3,0.4,0.5,0.8,0.5,1.3c0,1.4-0.8,2-2.4,2.1
		c-1,0-1.9-0.3-2.6-1L308.8,12.3z"/>
	<path style="fill:#DBDBDB;" d="M314.4,13.1l2.7-3.5c0.1-0.1,0.2-0.3,0.2-0.4c0-0.1,0-0.2,0-0.3c0-0.3-0.1-0.5-0.2-0.7
		c-0.2-0.2-0.4-0.3-0.7-0.3c-0.3,0-0.5,0.1-0.7,0.3c-0.2,0.2-0.3,0.4-0.3,0.8h-1c0-0.6,0.2-1.1,0.6-1.5c0.4-0.4,0.8-0.6,1.3-0.6
		c0.6,0,1.1,0.2,1.4,0.6c0.4,0.4,0.6,0.9,0.6,1.4c0,0.5-0.1,0.9-0.4,1.2l-2.2,2.9h2.6v1h-3.9V13.1z"/>
	<path style="fill:#DBDBDB;" d="M320.9,9.9h0.3c0.3,0,0.6-0.1,0.8-0.3c0.2-0.2,0.3-0.4,0.3-0.7c0-0.3-0.1-0.5-0.3-0.7
		c-0.2-0.2-0.4-0.3-0.7-0.3c-0.2,0-0.4,0.1-0.6,0.2c-0.2,0.1-0.3,0.4-0.4,0.6h-1c0.1-0.5,0.3-1,0.6-1.3c0.4-0.4,0.8-0.5,1.3-0.5
		c0.6,0,1.1,0.2,1.5,0.6c0.4,0.4,0.5,0.9,0.5,1.4c0,0.3,0,0.5-0.1,0.8c-0.1,0.3-0.3,0.5-0.6,0.7c0.3,0.2,0.5,0.4,0.6,0.7
		c0.1,0.3,0.2,0.6,0.2,0.9c0,0.7-0.2,1.2-0.6,1.6c-0.4,0.4-0.9,0.6-1.5,0.6c-0.5,0-0.9-0.2-1.2-0.5c-0.4-0.3-0.6-0.8-0.7-1.3h1
		c0.1,0.2,0.2,0.4,0.4,0.6c0.2,0.2,0.4,0.2,0.6,0.2c0.3,0,0.5-0.1,0.7-0.3c0.2-0.2,0.3-0.5,0.3-0.8c0-0.4-0.1-0.6-0.3-0.8
		c-0.2-0.2-0.4-0.3-0.8-0.3h-0.4V9.9z"/>
	<path style="fill:#DBDBDB;" d="M324.7,13.1l2.7-3.5c0.1-0.1,0.2-0.3,0.2-0.4c0-0.1,0-0.2,0-0.3c0-0.3-0.1-0.5-0.2-0.7
		c-0.2-0.2-0.4-0.3-0.7-0.3c-0.3,0-0.5,0.1-0.7,0.3c-0.2,0.2-0.3,0.4-0.3,0.8h-1c0-0.6,0.2-1.1,0.6-1.5c0.4-0.4,0.8-0.6,1.3-0.6
		c0.6,0,1.1,0.2,1.4,0.6c0.4,0.4,0.6,0.9,0.6,1.4c0,0.5-0.1,0.9-0.4,1.2L326,13h2.6v1h-3.9V13.1z"/>
	<path style="fill:#DBDBDB;" d="M330.1,10.8h2.9v1h-2.9V10.8z"/>
	<path style="fill:#DBDBDB;" d="M335.8,8l-1,0.7V7.7l1-0.7h1V14h-1V8z"/>
</g>
<g onclick="simulationClick('rs2')">
	<polygon style="fill:#FAFAFA;" points="289.5,50.7 254.4,50.7 254.4,32.5 257.7,32.5 257.7,28 261.1,28 261.1,25 282.8,25 
		282.8,28 286.2,28 286.2,32.5 289.5,32.5 	"/>
	<g>
		<path style="fill:#DBDBDB;" d="M250.9,21.5v32.8H293V21.5H250.9z M291.8,53.1H252V22.6h39.8V53.1z"/>
		<path style="fill:#DBDBDB;" d="M288.3,50.7h1.2v-1.2V33.6v-1.2h-1.2h-2.1V28h0H285h-2.2v-1.9V25h-1.2h-19.4h-1.2v1.2V28h-2.2h-1.2
			h0v4.5h-2.1h-1.2v1.2v15.9v1.2h1.2H288.3z M255.6,33.6h3.3v-1.2v-3.3h3.4V28v-1.9h19.4V28v1.2h3.4v3.3v1.2h3.3v15.9h-32.8V33.6z"
			/>
	</g>
</g>
<g onclick="simulationClick('rs1')">
	<polygon style="fill:#FAFAFA;" points="350.6,50.7 315.5,50.7 315.5,32.5 318.8,32.5 318.8,28 322.2,28 322.2,25 343.9,25 
		343.9,28 347.3,28 347.3,32.5 350.6,32.5 	"/>
	<g>
		<path style="fill:#DBDBDB;" d="M312,21.5v32.8h42.1V21.5H312z M353,53.1h-39.8V22.6H353V53.1z"/>
		<path style="fill:#DBDBDB;" d="M349.4,50.7h1.2v-1.2V33.6v-1.2h-1.2h-2.1V28h0h-1.2h-2.2v-1.9V25h-1.2h-19.4h-1.2v1.2V28H320h-1.2
			h0v4.5h-2.1h-1.2v1.2v15.9v1.2h1.2H349.4z M316.7,33.6h3.3v-1.2v-3.3h3.4V28v-1.9h19.4V28v1.2h3.4v3.3v1.2h3.3v15.9h-32.8V33.6z"
			/>
	</g>
</g>
<g onclick="simulationClick('wifi')">
	<polygon style="fill:#FAFAFA;" points="45,50.7 9.9,50.7 9.9,32.5 13.2,32.5 13.2,28 16.6,28 16.6,25 38.3,25 38.3,28 41.7,28 
		41.7,32.5 45,32.5 	"/>
	<g>
		<path style="fill:#DBDBDB;" d="M6.4,21.5v32.8h42.1V21.5H6.4z M47.4,53.1H7.6V22.6h39.8V53.1z"/>
		<path style="fill:#DBDBDB;" d="M43.9,50.7H45v-1.2V33.6v-1.2h-1.2h-2.1V28h0h-1.2h-2.2v-1.9V25h-1.2H17.8h-1.2v1.2V28h-2.2h-1.2h0
			v4.5h-2.1H9.9v1.2v15.9v1.2h1.2H43.9z M11.1,33.6h3.3v-1.2v-3.3h3.4V28v-1.9h19.4V28v1.2h3.4v3.3v1.2h3.3v15.9H11.1V33.6z"/>
	</g>
</g>
<g>
	<path style="fill:#DBDBDB;" d="M19,7l1.4,5.5h0L21.9,7H23l1.4,5.5h0L25.9,7h1.2l-2,7.1h-1.2l-1.4-5.5h0L21,14.1h-1.2l-2-7.1H19z"/>
	<path style="fill:#DBDBDB;" d="M28.9,7v7.1h-1.1V7H28.9z"/>
	<path style="fill:#DBDBDB;" d="M35.1,7v0.9h-3.7V10h3.5v0.9h-3.5v3.2h-1.1V7H35.1z"/>
	<path style="fill:#DBDBDB;" d="M37.2,7v7.1h-1.1V7H37.2z"/>
</g>
</svg>
