<?xml version="1.0" encoding="utf-8"?>
<!-- Generator: Adobe Illustrator 22.0.1, SVG Export Plug-In . SVG Version: 6.00 Build 0)  -->
<svg version="1.0" id="图层_1" xmlns="http://www.w3.org/2000/svg" xmlns:xlink="http://www.w3.org/1999/xlink" x="0px" y="0px"
	 viewBox="0 0 440 64" style="enable-background:new 0 0 440 64;" xml:space="preserve">
<g>
	<path style="fill:#DBDBDB;" d="M50.4,53.1h-2.7v-4.3h0.7v3.7h2.1V53.1z"/>
	<path style="fill:#DBDBDB;" d="M54.3,53.1h-0.7l-0.3-0.9h-1.7l-0.3,0.9h-0.7l1.6-4.3h0.5L54.3,53.1z M53.2,51.7l-0.6-1.9l-0.7,1.9
		H53.2z"/>
	<path style="fill:#DBDBDB;" d="M58.1,53.1h-0.6l-2-3v3h-0.7v-4.3h0.6l2,3v-3h0.6V53.1z"/>
	<path style="fill:#DBDBDB;" d="M60.8,53.1h-0.6v-3.6l-0.8,0.7v-0.7l0.8-0.7h0.6V53.1z"/>
</g>
<g>
	<path style="fill:#DBDBDB;" d="M117,53.1h-2.7v-4.3h0.7v3.7h2.1V53.1z"/>
	<path style="fill:#DBDBDB;" d="M120.9,53.1h-0.7l-0.3-0.9h-1.7l-0.3,0.9h-0.7l1.6-4.3h0.5L120.9,53.1z M119.7,51.7l-0.6-1.9
		l-0.7,1.9H119.7z"/>
	<path style="fill:#DBDBDB;" d="M124.7,53.1h-0.6l-2-3v3h-0.7v-4.3h0.6l2,3v-3h0.6V53.1z"/>
	<path style="fill:#DBDBDB;" d="M128.2,53.1h-2.5v-0.5l1.6-2c0.2-0.2,0.2-0.4,0.2-0.6c0-0.1,0-0.2-0.1-0.3s-0.1-0.2-0.2-0.2
		c-0.1-0.1-0.2-0.1-0.3-0.1c-0.2,0-0.3,0.1-0.5,0.2c-0.1,0.1-0.2,0.3-0.2,0.5h-0.6c0-0.2,0-0.3,0.1-0.5c0.1-0.2,0.1-0.3,0.3-0.4
		s0.2-0.2,0.4-0.2s0.3-0.1,0.5-0.1c0.2,0,0.5,0,0.6,0.1s0.3,0.2,0.4,0.4s0.2,0.4,0.2,0.6c0,0.2,0,0.3-0.1,0.5
		c-0.1,0.1-0.2,0.3-0.3,0.5l-1.3,1.6h1.7V53.1z"/>
</g>
<g>
	<path style="fill:#DBDBDB;" d="M185.2,48.8l-1.1,4.3h-0.6l-0.9-3l-0.9,3h-0.6l-1.1-4.3h0.7l0.7,3.1l0.9-3.1h0.5l0.9,3.1l0.7-3.1
		H185.2z"/>
	<path style="fill:#DBDBDB;" d="M188.9,53.1h-0.7l-0.3-0.9h-1.7l-0.3,0.9h-0.7l1.6-4.3h0.5L188.9,53.1z M187.8,51.7l-0.6-1.9
		l-0.7,1.9H187.8z"/>
	<path style="fill:#DBDBDB;" d="M192.8,53.1h-0.6l-2-3v3h-0.7v-4.3h0.6l2,3v-3h0.6V53.1z"/>
</g>
<g>
	<g>
		<rect x="326.2" y="46" style="fill:#DBDBDB;" width="3" height="1"/>
		
			<rect x="325.2" y="45" transform="matrix(-1.836970e-16 1 -1 -1.836970e-16 372.2072 -281.2072)" style="fill:#DBDBDB;" width="3" height="1"/>
	</g>
	<g>
			<rect x="374.2" y="46" transform="matrix(-1 -4.668766e-11 4.668766e-11 -1 751.3054 93)" style="fill:#DBDBDB;" width="3" height="1"/>
		
			<rect x="375.2" y="45" transform="matrix(-4.729391e-11 1 -1 -4.729391e-11 422.1527 -331.1527)" style="fill:#DBDBDB;" width="3" height="1"/>
	</g>
	<g>
		<path style="fill:#DBDBDB;" d="M332.1,48.8h1.6c0.3,0,0.6,0.1,0.8,0.3c0.3,0.2,0.4,0.5,0.4,0.9c0,0.6-0.3,1-0.8,1.2l1,1.9h-0.7
			l-0.9-1.8h-0.8v1.8h-0.6V48.8z M332.7,50.7h1c0.2,0,0.4-0.1,0.5-0.2c0.1-0.1,0.2-0.3,0.2-0.5c0-0.2-0.1-0.4-0.2-0.5
			c-0.1-0.1-0.3-0.1-0.5-0.1h-1V50.7z"/>
		<path style="fill:#DBDBDB;" d="M336,52c0.3,0.3,0.7,0.4,1.2,0.4c0.5,0,0.8-0.2,0.8-0.6c0-0.3-0.2-0.5-0.5-0.6
			c-0.2,0-0.3,0-0.5-0.1c-0.4-0.1-0.6-0.2-0.8-0.4c-0.2-0.2-0.3-0.5-0.3-0.8c0-0.4,0.1-0.7,0.4-0.9c0.2-0.2,0.6-0.3,1-0.3
			c0.5,0,1,0.2,1.3,0.4l-0.3,0.5c-0.3-0.2-0.7-0.3-1-0.3c-0.2,0-0.4,0-0.5,0.1c-0.1,0.1-0.2,0.3-0.2,0.5c0,0.1,0,0.2,0.1,0.3
			c0.1,0.1,0.2,0.2,0.4,0.2c0.1,0,0.3,0,0.5,0.1c0.4,0.1,0.7,0.2,0.9,0.4c0.2,0.2,0.3,0.5,0.3,0.8c0,0.8-0.5,1.2-1.5,1.2
			c-0.6,0-1.1-0.2-1.6-0.6L336,52z"/>
		<path style="fill:#DBDBDB;" d="M339.3,51.9l1.4-3.1h0.7l-1.4,3.1h1.1v-1.2h0.6v1.2h0.3v0.6h-0.3v0.6H341v-0.6h-1.7V51.9z"/>
		<path style="fill:#DBDBDB;" d="M342.5,51.8c0-0.4,0.2-0.7,0.5-1c-0.1-0.1-0.2-0.2-0.3-0.4c-0.1-0.1-0.1-0.3-0.1-0.5
			c0-0.4,0.1-0.7,0.3-0.9c0.2-0.2,0.5-0.3,0.8-0.4c0.3,0,0.6,0.1,0.8,0.4c0.2,0.2,0.3,0.5,0.3,0.9c0,0.2,0,0.3-0.1,0.5
			c-0.1,0.1-0.2,0.3-0.3,0.4c0.3,0.2,0.5,0.5,0.5,1c0,0.4-0.1,0.7-0.4,0.9c-0.2,0.2-0.5,0.4-0.9,0.4c-0.4,0-0.6-0.1-0.9-0.4
			C342.6,52.5,342.5,52.2,342.5,51.8z M343.1,51.8c0,0.2,0.1,0.4,0.2,0.5c0.1,0.1,0.3,0.2,0.5,0.2c0.2,0,0.3-0.1,0.5-0.2
			c0.1-0.1,0.2-0.3,0.2-0.5c0-0.2-0.1-0.4-0.2-0.5c-0.1-0.1-0.3-0.2-0.5-0.2c-0.2,0-0.3,0.1-0.5,0.2
			C343.1,51.4,343.1,51.6,343.1,51.8z M343.1,50c0,0.2,0.1,0.3,0.2,0.5c0.1,0.1,0.3,0.2,0.4,0.2c0.2,0,0.3-0.1,0.4-0.2
			c0.1-0.1,0.2-0.3,0.2-0.5c0-0.2-0.1-0.4-0.2-0.5c-0.1-0.1-0.3-0.2-0.4-0.2c-0.2,0-0.3,0-0.4,0.2C343.2,49.6,343.1,49.8,343.1,50z"
			/>
		<path style="fill:#DBDBDB;" d="M345.8,48.8h2.2v0.6h-1.6v1c0.2-0.2,0.4-0.2,0.7-0.2c0.2,0,0.3,0,0.4,0.1c0.1,0.1,0.2,0.1,0.3,0.2
			c0.1,0.1,0.2,0.3,0.2,0.4c0,0.1,0,0.2,0.1,0.3c0,0.1,0,0.3,0,0.5c0,0.3,0,0.5-0.1,0.6c0,0.1-0.1,0.3-0.2,0.4
			c-0.1,0.1-0.2,0.2-0.4,0.3c-0.2,0.1-0.3,0.1-0.5,0.1c-0.3,0-0.5-0.1-0.8-0.3c-0.2-0.2-0.4-0.5-0.4-0.9h0.6
			c0.1,0.3,0.3,0.5,0.6,0.5c0.1,0,0.3,0,0.3-0.1c0.1-0.1,0.1-0.1,0.2-0.2c0-0.1,0.1-0.2,0.1-0.3c0-0.1,0-0.2,0-0.3
			c0-0.2,0-0.4-0.1-0.6c0-0.1-0.1-0.1-0.2-0.2c-0.1,0-0.2-0.1-0.3-0.1c-0.1,0-0.2,0-0.3,0.1c-0.1,0.1-0.2,0.1-0.2,0.3h-0.6V48.8z"/>
		<path style="fill:#DBDBDB;" d="M350,48.8h0.5l-1.4,4.3h-0.5L350,48.8z"/>
		<path style="fill:#DBDBDB;" d="M351.3,48.8h1.6c0.3,0,0.6,0.1,0.8,0.3c0.3,0.2,0.4,0.5,0.4,0.9c0,0.6-0.3,1-0.8,1.2l1,1.9h-0.7
			l-0.9-1.8h-0.8v1.8h-0.6V48.8z M351.9,50.7h1c0.2,0,0.4-0.1,0.5-0.2c0.1-0.1,0.2-0.3,0.2-0.5c0-0.2-0.1-0.4-0.2-0.5
			c-0.1-0.1-0.3-0.1-0.5-0.1h-1V50.7z"/>
		<path style="fill:#DBDBDB;" d="M355.2,52c0.3,0.3,0.7,0.4,1.2,0.4c0.5,0,0.8-0.2,0.8-0.6c0-0.3-0.2-0.5-0.5-0.6
			c-0.2,0-0.3,0-0.5-0.1c-0.4-0.1-0.6-0.2-0.8-0.4c-0.2-0.2-0.3-0.5-0.3-0.8c0-0.4,0.1-0.7,0.4-0.9c0.2-0.2,0.6-0.3,1-0.3
			c0.5,0,1,0.2,1.3,0.4l-0.3,0.5c-0.3-0.2-0.7-0.3-1-0.3c-0.2,0-0.4,0-0.5,0.1c-0.1,0.1-0.2,0.3-0.2,0.5c0,0.1,0,0.2,0.1,0.3
			c0.1,0.1,0.2,0.2,0.4,0.2c0.1,0,0.3,0,0.5,0.1c0.4,0.1,0.7,0.2,0.9,0.4c0.2,0.2,0.3,0.5,0.3,0.8c0,0.8-0.5,1.2-1.5,1.2
			c-0.6,0-1.1-0.2-1.6-0.6L355.2,52z"/>
		<path style="fill:#DBDBDB;" d="M358.6,52.5l1.6-2.1c0.1-0.1,0.1-0.2,0.1-0.2c0-0.1,0-0.1,0-0.2c0-0.2,0-0.3-0.1-0.4
			c-0.1-0.1-0.2-0.2-0.4-0.2c-0.2,0-0.3,0.1-0.4,0.2c-0.1,0.1-0.2,0.3-0.2,0.5h-0.6c0-0.4,0.1-0.6,0.3-0.9c0.2-0.2,0.5-0.3,0.8-0.3
			c0.4,0,0.6,0.1,0.9,0.4c0.2,0.2,0.3,0.5,0.3,0.9c0,0.3-0.1,0.5-0.2,0.8l-1.3,1.7h1.6v0.6h-2.4V52.5z"/>
		<path style="fill:#DBDBDB;" d="M362.5,50.6h0.2c0.2,0,0.4-0.1,0.5-0.2c0.1-0.1,0.2-0.3,0.2-0.4c0-0.2-0.1-0.3-0.2-0.4
			c-0.1-0.1-0.3-0.2-0.4-0.2c-0.1,0-0.2,0-0.3,0.1c-0.1,0.1-0.2,0.2-0.2,0.4h-0.6c0-0.3,0.2-0.6,0.4-0.8c0.2-0.2,0.5-0.3,0.8-0.3
			c0.4,0,0.7,0.1,0.9,0.4c0.2,0.2,0.3,0.5,0.3,0.8c0,0.2,0,0.3-0.1,0.5c-0.1,0.2-0.2,0.3-0.4,0.4c0.2,0.1,0.3,0.3,0.4,0.4
			c0.1,0.2,0.1,0.3,0.1,0.5c0,0.4-0.1,0.7-0.4,0.9c-0.2,0.2-0.5,0.4-0.9,0.4c-0.3,0-0.5-0.1-0.7-0.3c-0.2-0.2-0.4-0.5-0.4-0.8h0.6
			c0.1,0.1,0.1,0.3,0.2,0.3c0.1,0.1,0.2,0.1,0.4,0.1c0.2,0,0.3-0.1,0.4-0.2c0.1-0.1,0.2-0.3,0.2-0.5c0-0.2-0.1-0.4-0.2-0.5
			c-0.1-0.1-0.3-0.2-0.5-0.2h-0.3V50.6z"/>
		<path style="fill:#DBDBDB;" d="M364.8,52.5l1.6-2.1c0.1-0.1,0.1-0.2,0.1-0.2c0-0.1,0-0.1,0-0.2c0-0.2,0-0.3-0.1-0.4
			c-0.1-0.1-0.2-0.2-0.4-0.2c-0.2,0-0.3,0.1-0.4,0.2c-0.1,0.1-0.2,0.3-0.2,0.5h-0.6c0-0.4,0.1-0.6,0.3-0.9c0.2-0.2,0.5-0.3,0.8-0.3
			c0.4,0,0.6,0.1,0.9,0.4c0.2,0.2,0.3,0.5,0.3,0.9c0,0.3-0.1,0.5-0.2,0.8l-1.3,1.7h1.6v0.6h-2.4V52.5z"/>
		<path style="fill:#DBDBDB;" d="M368.1,51.1h1.7v0.6h-1.7V51.1z"/>
		<path style="fill:#DBDBDB;" d="M371.6,49.4l-0.6,0.4v-0.7l0.6-0.4h0.6v4.3h-0.6V49.4z"/>
	</g>
</g>
<g>
	<path style="fill:#DBDBDB;" d="M231.9,48.8h1.6c0.3,0,0.6,0.1,0.8,0.3c0.3,0.2,0.4,0.5,0.4,0.9c0,0.6-0.3,1-0.8,1.2l1,1.9h-0.7
		l-0.9-1.8h-0.8v1.8h-0.6V48.8z M232.5,50.7h1c0.2,0,0.4-0.1,0.5-0.2c0.1-0.1,0.2-0.3,0.2-0.5c0-0.2-0.1-0.4-0.2-0.5
		c-0.1-0.1-0.3-0.1-0.5-0.1h-1V50.7z"/>
	<path style="fill:#DBDBDB;" d="M235.9,52.1c0.3,0.3,0.7,0.4,1.2,0.4c0.5,0,0.8-0.2,0.8-0.6c0-0.3-0.2-0.5-0.5-0.6
		c-0.2,0-0.3,0-0.5-0.1c-0.4-0.1-0.6-0.2-0.8-0.4c-0.2-0.2-0.3-0.5-0.3-0.8c0-0.4,0.1-0.7,0.4-0.9c0.2-0.2,0.6-0.3,1-0.3
		c0.5,0,1,0.2,1.3,0.4l-0.3,0.5c-0.3-0.2-0.7-0.3-1-0.3c-0.2,0-0.4,0-0.5,0.1c-0.1,0.1-0.2,0.3-0.2,0.5c0,0.1,0,0.2,0.1,0.3
		c0.1,0.1,0.2,0.2,0.4,0.2c0.1,0,0.3,0,0.5,0.1c0.4,0.1,0.7,0.2,0.9,0.4c0.2,0.2,0.3,0.5,0.3,0.8c0,0.8-0.5,1.2-1.5,1.2
		c-0.6,0-1.1-0.2-1.6-0.6L235.9,52.1z"/>
	<path style="fill:#DBDBDB;" d="M239.1,51.9l1.4-3.1h0.7l-1.4,3.1h1.1v-1.2h0.6v1.2h0.3v0.6h-0.3v0.6h-0.6v-0.6h-1.7V51.9z"/>
	<path style="fill:#DBDBDB;" d="M242.3,51.9c0-0.4,0.2-0.7,0.5-1c-0.1-0.1-0.2-0.2-0.3-0.4c-0.1-0.1-0.1-0.3-0.1-0.5
		c0-0.4,0.1-0.7,0.3-0.9c0.2-0.2,0.5-0.3,0.8-0.4c0.3,0,0.6,0.1,0.8,0.4c0.2,0.2,0.3,0.5,0.3,0.9c0,0.2,0,0.3-0.1,0.5
		c-0.1,0.1-0.2,0.3-0.3,0.4c0.3,0.2,0.5,0.5,0.5,1c0,0.4-0.1,0.7-0.4,0.9c-0.2,0.2-0.5,0.4-0.9,0.4c-0.4,0-0.6-0.1-0.9-0.4
		C242.4,52.5,242.3,52.2,242.3,51.9z M242.9,51.8c0,0.2,0.1,0.4,0.2,0.5c0.1,0.1,0.3,0.2,0.5,0.2c0.2,0,0.3-0.1,0.5-0.2
		c0.1-0.1,0.2-0.3,0.2-0.5c0-0.2-0.1-0.4-0.2-0.5c-0.1-0.1-0.3-0.2-0.5-0.2c-0.2,0-0.3,0.1-0.5,0.2C243,51.5,242.9,51.6,242.9,51.8z
		 M243,50c0,0.2,0.1,0.3,0.2,0.5c0.1,0.1,0.3,0.2,0.4,0.2c0.2,0,0.3-0.1,0.4-0.2c0.1-0.1,0.2-0.3,0.2-0.5c0-0.2-0.1-0.4-0.2-0.5
		c-0.1-0.1-0.3-0.2-0.4-0.2c-0.2,0-0.3,0-0.4,0.2C243.1,49.7,243,49.8,243,50z"/>
	<path style="fill:#DBDBDB;" d="M245.6,48.8h2.2v0.6h-1.6v1c0.2-0.2,0.4-0.2,0.7-0.2c0.2,0,0.3,0,0.4,0.1c0.1,0.1,0.2,0.1,0.3,0.2
		c0.1,0.1,0.2,0.3,0.2,0.4c0,0.1,0,0.2,0.1,0.3c0,0.1,0,0.3,0,0.5c0,0.3,0,0.5-0.1,0.6c0,0.1-0.1,0.3-0.2,0.4
		c-0.1,0.1-0.2,0.2-0.4,0.3c-0.2,0.1-0.3,0.1-0.5,0.1c-0.3,0-0.5-0.1-0.8-0.3c-0.2-0.2-0.4-0.5-0.4-0.9h0.6c0.1,0.3,0.3,0.5,0.6,0.5
		c0.1,0,0.3,0,0.3-0.1c0.1-0.1,0.1-0.1,0.2-0.2c0-0.1,0.1-0.2,0.1-0.3c0-0.1,0-0.2,0-0.3c0-0.2,0-0.4-0.1-0.6c0-0.1-0.1-0.1-0.2-0.2
		c-0.1,0-0.2-0.1-0.3-0.1c-0.1,0-0.2,0-0.3,0.1c-0.1,0.1-0.2,0.1-0.2,0.3h-0.6V48.8z"/>
	<path style="fill:#DBDBDB;" d="M249.9,48.8h0.5l-1.4,4.3h-0.5L249.9,48.8z"/>
	<path style="fill:#DBDBDB;" d="M251.1,48.8h1.6c0.3,0,0.6,0.1,0.8,0.3c0.3,0.2,0.4,0.5,0.4,0.9c0,0.6-0.3,1-0.8,1.2l1,1.9h-0.7
		l-0.9-1.8h-0.8v1.8h-0.6V48.8z M251.7,50.7h1c0.2,0,0.4-0.1,0.5-0.2c0.1-0.1,0.2-0.3,0.2-0.5c0-0.2-0.1-0.4-0.2-0.5
		c-0.1-0.1-0.3-0.1-0.5-0.1h-1V50.7z"/>
	<path style="fill:#DBDBDB;" d="M255.1,52.1c0.3,0.3,0.7,0.4,1.2,0.4c0.5,0,0.8-0.2,0.8-0.6c0-0.3-0.2-0.5-0.5-0.6
		c-0.2,0-0.3,0-0.5-0.1c-0.4-0.1-0.6-0.2-0.8-0.4c-0.2-0.2-0.3-0.5-0.3-0.8c0-0.4,0.1-0.7,0.4-0.9c0.2-0.2,0.6-0.3,1-0.3
		c0.5,0,1,0.2,1.3,0.4l-0.3,0.5c-0.3-0.2-0.7-0.3-1-0.3c-0.2,0-0.4,0-0.5,0.1c-0.1,0.1-0.2,0.3-0.2,0.5c0,0.1,0,0.2,0.1,0.3
		c0.1,0.1,0.2,0.2,0.4,0.2c0.1,0,0.3,0,0.5,0.1c0.4,0.1,0.7,0.2,0.9,0.4c0.2,0.2,0.3,0.5,0.3,0.8c0,0.8-0.5,1.2-1.5,1.2
		c-0.6,0-1.1-0.2-1.6-0.6L255.1,52.1z"/>
	<path style="fill:#DBDBDB;" d="M258.4,52.5l1.6-2.1c0.1-0.1,0.1-0.2,0.1-0.2c0-0.1,0-0.1,0-0.2c0-0.2,0-0.3-0.1-0.4
		c-0.1-0.1-0.2-0.2-0.4-0.2c-0.2,0-0.3,0.1-0.4,0.2c-0.1,0.1-0.2,0.3-0.2,0.5h-0.6c0-0.4,0.1-0.6,0.3-0.9c0.2-0.2,0.5-0.3,0.8-0.3
		c0.4,0,0.6,0.1,0.9,0.4c0.2,0.2,0.3,0.5,0.3,0.9c0,0.3-0.1,0.5-0.2,0.8l-1.3,1.7h1.6v0.6h-2.4V52.5z"/>
	<path style="fill:#DBDBDB;" d="M262.4,50.6h0.2c0.2,0,0.4-0.1,0.5-0.2c0.1-0.1,0.2-0.3,0.2-0.4c0-0.2-0.1-0.3-0.2-0.4
		c-0.1-0.1-0.3-0.2-0.4-0.2c-0.1,0-0.2,0-0.3,0.1c-0.1,0.1-0.2,0.2-0.2,0.4h-0.6c0-0.3,0.2-0.6,0.4-0.8c0.2-0.2,0.5-0.3,0.8-0.3
		c0.4,0,0.7,0.1,0.9,0.4c0.2,0.2,0.3,0.5,0.3,0.8c0,0.2,0,0.3-0.1,0.5c-0.1,0.2-0.2,0.3-0.4,0.4c0.2,0.1,0.3,0.3,0.4,0.4
		c0.1,0.2,0.1,0.3,0.1,0.5c0,0.4-0.1,0.7-0.4,0.9c-0.2,0.2-0.5,0.4-0.9,0.4c-0.3,0-0.5-0.1-0.7-0.3c-0.2-0.2-0.4-0.5-0.4-0.8h0.6
		c0.1,0.1,0.1,0.3,0.2,0.3c0.1,0.1,0.2,0.1,0.4,0.1c0.2,0,0.3-0.1,0.4-0.2c0.1-0.1,0.2-0.3,0.2-0.5c0-0.2-0.1-0.4-0.2-0.5
		c-0.1-0.1-0.3-0.2-0.5-0.2h-0.3V50.6z"/>
	<path style="fill:#DBDBDB;" d="M264.7,52.5l1.6-2.1c0.1-0.1,0.1-0.2,0.1-0.2c0-0.1,0-0.1,0-0.2c0-0.2,0-0.3-0.1-0.4
		c-0.1-0.1-0.2-0.2-0.4-0.2c-0.2,0-0.3,0.1-0.4,0.2c-0.1,0.1-0.2,0.3-0.2,0.5h-0.6c0-0.4,0.1-0.6,0.3-0.9c0.2-0.2,0.5-0.3,0.8-0.3
		c0.4,0,0.6,0.1,0.9,0.4c0.2,0.2,0.3,0.5,0.3,0.9c0,0.3-0.1,0.5-0.2,0.8l-1.3,1.7h1.6v0.6h-2.4V52.5z"/>
	<path style="fill:#DBDBDB;" d="M267.9,51.1h1.7v0.6h-1.7V51.1z"/>
	<path style="fill:#DBDBDB;" d="M270.5,52.5l1.6-2.1c0.1-0.1,0.1-0.2,0.1-0.2c0-0.1,0-0.1,0-0.2c0-0.2,0-0.3-0.1-0.4
		c-0.1-0.1-0.2-0.2-0.4-0.2c-0.2,0-0.3,0.1-0.4,0.2c-0.1,0.1-0.2,0.3-0.2,0.5h-0.6c0-0.4,0.1-0.6,0.3-0.9c0.2-0.2,0.5-0.3,0.8-0.3
		c0.4,0,0.6,0.1,0.9,0.4c0.2,0.2,0.3,0.5,0.3,0.9c0,0.3-0.1,0.5-0.2,0.8l-1.3,1.7h1.6v0.6h-2.4V52.5z"/>
</g>
<path style="fill:#DBDBDB;" d="M436,0H4C1.8,0,0,1.8,0,4v56c0,2.2,1.8,4,4,4h432c2.2,0,4-1.8,4-4V4C440,1.8,438.2,0,436,0z M439,60
	c0,1.7-1.3,3-3,3H4c-1.7,0-3-1.3-3-3V4c0-1.7,1.3-3,3-3h432c1.7,0,3,1.3,3,3V60z"/>
<path style="fill:#DBDBDB;" d="M433,5H7C5.9,5,5,5.9,5,7v50c0,1.1,0.9,2,2,2h426c1.1,0,2-0.9,2-2V7C435,5.9,434.1,5,433,5z M434,57
	c0,0.6-0.4,1-1,1H7c-0.6,0-1-0.4-1-1V7c0-0.6,0.4-1,1-1h426c0.6,0,1,0.4,1,1V57z"/>
<g class="lan1" onclick="openList(this)">
	<polygon class="lan1-color" points="69.3,39 39.3,39 39.3,23.4 42.1,23.4 42.1,19.6 45,19.6 45,17 63.6,17 63.6,19.6 66.5,19.6 
		66.5,23.4 69.3,23.4 "/>
	<g>
		<path style="fill:#DBDBDB;" d="M34.3,13v30h40V13H34.3z M73.3,42h-38V14h38V42z"/>
		<path style="fill:#DBDBDB;" d="M68.3,39h1v-1V24.4v-1h-1h-1.8v-3.8h0h-1h-1.9V18v-1h-1H46h-1v1v1.6h-1.9h-1h0v3.8h-1.8h-1v1V38v1h1
			H68.3z M40.3,24.4h2.8v-1v-2.8H46v-1V18h16.6v1.6v1h2.9v2.8v1h2.8V38h-28V24.4z"/>
	</g>
</g>
<!-- <g>
	<polygon style="fill:#FAFAFA;" points="69.3,39 39.3,39 39.3,23.4 42.1,23.4 42.1,19.6 45,19.6 45,17 63.6,17 63.6,19.6 66.5,19.6 
	66.5,23.4 69.3,23.4 "/>
	<g>
		<path style="fill:#DBDBDB;" d="M34.3,13v30h40V13H34.3z M73.3,42h-38V14h38V42z"/>
		<path style="fill:#DBDBDB;" d="M68.3,39h1v-1V24.4v-1h-1h-1.8v-3.8h0h-1h-1.9V18v-1h-1H46h-1v1v1.6h-1.9h-1h0v3.8h-1.8h-1v1V38v1h1
			H68.3z M40.3,24.4h2.8v-1v-2.8H46v-1V18h16.6v1.6v1h2.9v2.8v1h2.8V38h-28V24.4z"/>
	</g>
</g> -->
<g class="lan2" onclick="openList(this)">
	<polygon class="lan2-color" points="135.9,39 105.9,39 105.9,23.4 108.7,23.4 108.7,19.6 111.6,19.6 111.6,17 130.2,17 
	130.2,19.6 133.1,19.6 133.1,23.4 135.9,23.4 "/>
	<g>
		<path style="fill:#DBDBDB;" d="M100.9,13v30h40V13H100.9z M139.9,42h-38V14h38V42z"/>
		<path style="fill:#DBDBDB;" d="M134.9,39h1v-1V24.4v-1h-1h-1.8v-3.8h0h-1h-1.9V18v-1h-1h-16.6h-1v1v1.6h-1.9h-1h0v3.8h-1.8h-1v1V38
			v1h1H134.9z M106.9,24.4h2.8v-1v-2.8h2.9v-1V18h16.6v1.6v1h2.9v2.8v1h2.8V38h-28V24.4z"/>
	</g>
</g>
<g>
	<polygon style="fill:#FAFAFA;" points="201.4,39 171.4,39 171.4,23.4 174.2,23.4 174.2,19.6 177.1,19.6 177.1,17 195.7,17 
		195.7,19.6 198.6,19.6 198.6,23.4 201.4,23.4 "/>
	<g>
		<path style="fill:#DBDBDB;" d="M166.4,13v30h40V13H166.4z M205.4,42h-38V14h38V42z"/>
		<path style="fill:#DBDBDB;" d="M200.4,39h1v-1V24.4v-1h-1h-1.8v-3.8h0h-1h-1.9V18v-1h-1h-16.6h-1v1v1.6h-1.9h-1h0v3.8h-1.8h-1v1V38
			v1h1H200.4z M172.4,24.4h2.8v-1v-2.8h2.9v-1V18h16.6v1.6v1h2.9v2.8v1h2.8V38h-28V24.4z"/>
	</g>
</g>
<g class="rs2" onclick="rsPort(this)">
	<polygon class="rs2-color" points="267.4,39 237.4,39 237.4,23.4 240.2,23.4 240.2,19.6 243.1,19.6 243.1,17 261.7,17 
		261.7,19.6 264.6,19.6 264.6,23.4 267.4,23.4 "/>
	<g>
		<path style="fill:#DBDBDB;" d="M232.4,13v30h40V13H232.4z M271.4,42h-38V14h38V42z"/>
		<path style="fill:#DBDBDB;" d="M266.4,39h1v-1V24.4v-1h-1h-1.8v-3.8h0h-1h-1.9V18v-1h-1h-16.6h-1v1v1.6h-1.9h-1h0v3.8h-1.8h-1v1V38
			v1h1H266.4z M238.4,24.4h2.8v-1v-2.8h2.9v-1V18h16.6v1.6v1h2.9v2.8v1h2.8V38h-28V24.4z"/>
	</g>
</g>
<g class="rs1-1" onclick="rsPort(this)">
	<polygon class="rs1-color" points="333.4,39 303.4,39 303.4,23.4 306.2,23.4 306.2,19.6 309.1,19.6 309.1,17 327.7,17 
	327.7,19.6 330.6,19.6 330.6,23.4 333.4,23.4 "/>
	<g>
		<path style="fill:#DBDBDB;" d="M298.4,13v30h40V13H298.4z M337.4,42h-38V14h38V42z"/>
		<path style="fill:#DBDBDB;" d="M332.4,39h1v-1V24.4v-1h-1h-1.8v-3.8h0h-1h-1.9V18v-1h-1h-16.6h-1v1v1.6h-1.9h-1h0v3.8h-1.8h-1v1V38
			v1h1H332.4z M304.4,24.4h2.8v-1v-2.8h2.9v-1V18h16.6v1.6v1h2.9v2.8v1h2.8V38h-28V24.4z"/>
	</g>
</g>
<g class="rs1-2" onclick="rsPort(this)">
	<polygon class="rs1-color" points="399.4,39 369.4,39 369.4,23.4 372.2,23.4 372.2,19.6 375.1,19.6 375.1,17 393.7,17 
		393.7,19.6 396.6,19.6 396.6,23.4 399.4,23.4 "/>
	<g>
		<path style="fill:#DBDBDB;" d="M364.4,13v30h40V13H364.4z M403.4,42h-38V14h38V42z"/>
		<path style="fill:#DBDBDB;" d="M398.4,39h1v-1V24.4v-1h-1h-1.8v-3.8h0h-1h-1.9V18v-1h-1h-16.6h-1v1v1.6h-1.9h-1h0v3.8h-1.8h-1v1V38
			v1h1H398.4z M370.4,24.4h2.8v-1v-2.8h2.9v-1V18h16.6v1.6v1h2.9v2.8v1h2.8V38h-28V24.4z"/>
	</g>
</g>





</svg>
