<?xml version="1.0" encoding="utf-8"?>
<!-- Generator: Adobe Illustrator 23.0.1, SVG Export Plug-In . SVG Version: 6.00 Build 0)  -->
<svg version="1.0" id="图层_1" xmlns="http://www.w3.org/2000/svg" xmlns:xlink="http://www.w3.org/1999/xlink" x="0px" y="0px"
	 viewBox="0 0 18.7 13.4" style="enable-background:new 0 0 18.7 13.4;" xml:space="preserve">
<style type="text/css">
	.st0{fill:none;stroke:#10A957;stroke-width:0.5;stroke-linecap:round;stroke-linejoin:round;stroke-miterlimit:10;}
</style>
<g>
	<line class="st0" x1="0.3" y1="3.7" x2="0.3" y2="9.5"/>
	<line class="st0" x1="1.7" y1="2.4" x2="14.2" y2="2.4"/>
	<line class="st0" x1="1.7" y1="10.8" x2="14.2" y2="10.8"/>
	<g>
		<path class="st0" d="M0.3,3.7c0-0.7,0.6-1.3,1.3-1.3"/>
		<path class="st0" d="M0.3,9.5c0,0.7,0.6,1.3,1.3,1.3"/>
	</g>
	<g>
		<line class="st0" x1="16.5" y1="2.4" x2="17" y2="2.4"/>
		<line class="st0" x1="16.5" y1="10.8" x2="17" y2="10.8"/>
		<g>
			<path class="st0" d="M18.3,3.7c0-0.7-0.6-1.3-1.3-1.3"/>
			<path class="st0" d="M18.3,9.5c0,0.7-0.6,1.3-1.3,1.3"/>
		</g>
		<line class="st0" x1="18.3" y1="3.7" x2="18.3" y2="9.5"/>
	</g>
	<g>
		<line class="st0" x1="3.3" y1="5.6" x2="3.3" y2="6.8"/>
		<line class="st0" x1="4.3" y1="5.9" x2="2.2" y2="7.6"/>
		<line class="st0" x1="4.3" y1="7.6" x2="2.2" y2="5.9"/>
	</g>
	<g>
		<line class="st0" x1="7.5" y1="5.6" x2="7.5" y2="6.8"/>
		<line class="st0" x1="8.6" y1="5.9" x2="6.5" y2="7.6"/>
		<line class="st0" x1="8.6" y1="7.6" x2="6.5" y2="5.9"/>
	</g>
	<g>
		<line class="st0" x1="11.8" y1="5.6" x2="11.8" y2="6.8"/>
		<line class="st0" x1="12.8" y1="5.9" x2="10.8" y2="7.6"/>
		<line class="st0" x1="12.8" y1="7.6" x2="10.8" y2="5.9"/>
	</g>
	<g>
		<line class="st0" x1="13.6" y1="0.3" x2="17.1" y2="0.3"/>
		<g>
			<line class="st0" x1="15.3" y1="0.3" x2="15.3" y2="13"/>
			<line class="st0" x1="17.1" y1="13" x2="13.6" y2="13"/>
		</g>
	</g>
</g>
</svg>
