<?xml version="1.0" encoding="utf-8"?>
<!-- Generator: Adobe Illustrator 23.0.1, SVG Export Plug-In . SVG Version: 6.00 Build 0)  -->
<svg version="1.0" id="图层_1" xmlns="http://www.w3.org/2000/svg" xmlns:xlink="http://www.w3.org/1999/xlink" x="0px" y="0px"
	 viewBox="0 0 20 20" style="enable-background:new 0 0 20 20;" xml:space="preserve">
<style type="text/css">
	.st0{fill:none;stroke:#101010;stroke-width:0.5;stroke-linecap:round;stroke-linejoin:round;stroke-miterlimit:10;}
</style>
<g>
	<g>
		<line class="st0" x1="10.4" y1="1" x2="13.7" y2="1"/>
		<g>
			<path class="st0" d="M15.9,2.3c-0.5-1-1.4-1.3-2.1-1.3"/>
			<line class="st0" x1="15.9" y1="2.3" x2="18.6" y2="6.5"/>
		</g>
		<path class="st0" d="M18.6,6.5C18.9,7,19,7.6,19,8.1"/>
		<line class="st0" x1="19" y1="8.1" x2="19" y2="15"/>
		<path class="st0" d="M19,15c0,1-0.8,1.8-1.8,1.8"/>
		<line class="st0" x1="17.2" y1="16.7" x2="10.4" y2="16.7"/>
	</g>
	<g>
		<line class="st0" x1="10.4" y1="1" x2="6.3" y2="1"/>
		<g>
			<path class="st0" d="M4.1,2.3C4.7,1.3,5.5,1,6.3,1"/>
			<line class="st0" x1="4.1" y1="2.3" x2="1.4" y2="6.5"/>
		</g>
		<path class="st0" d="M1.4,6.5C1.1,7,1,7.6,1,8.1"/>
		<line class="st0" x1="1" y1="8.1" x2="1" y2="15"/>
		<path class="st0" d="M1,15c0,1,0.8,1.8,1.8,1.8"/>
		<line class="st0" x1="2.8" y1="16.7" x2="10.4" y2="16.7"/>
	</g>
	<g>
		<line class="st0" x1="4" y1="16.7" x2="5" y2="19"/>
		<line class="st0" x1="7.7" y1="16.7" x2="6.6" y2="19"/>
		<line class="st0" x1="5" y1="19" x2="6.6" y2="19"/>
	</g>
	<g>
		<line class="st0" x1="13.2" y1="16.7" x2="14.2" y2="19"/>
		<line class="st0" x1="16.9" y1="16.7" x2="15.8" y2="19"/>
		<line class="st0" x1="14.2" y1="19" x2="15.8" y2="19"/>
	</g>
	<g>
		<line class="st0" x1="1" y1="9.1" x2="13.4" y2="9.1"/>
		<line class="st0" x1="13.4" y1="10.6" x2="13.4" y2="9.1"/>
		<line class="st0" x1="11.9" y1="9.1" x2="11.9" y2="10.6"/>
		<line class="st0" x1="10.3" y1="10.6" x2="10.3" y2="9.1"/>
		<line class="st0" x1="8.8" y1="9.1" x2="8.8" y2="10.6"/>
		<line class="st0" x1="7.3" y1="10.6" x2="7.3" y2="9.1"/>
		<line class="st0" x1="5.7" y1="9.1" x2="5.7" y2="10.6"/>
		<line class="st0" x1="4.2" y1="10.6" x2="4.2" y2="9.1"/>
		<line class="st0" x1="2.7" y1="9.1" x2="2.7" y2="10.6"/>
	</g>
	<g>
		<line class="st0" x1="18.1" y1="9.1" x2="15.2" y2="9.1"/>
		<line class="st0" x1="15.2" y1="9.8" x2="15.2" y2="9.1"/>
	</g>
	<g>
		<line class="st0" x1="18.1" y1="11.6" x2="15.2" y2="11.6"/>
		<line class="st0" x1="15.2" y1="12.4" x2="15.2" y2="11.6"/>
	</g>
	<g>
		<line class="st0" x1="18.1" y1="14.2" x2="15.2" y2="14.2"/>
		<line class="st0" x1="15.2" y1="15" x2="15.2" y2="14.2"/>
	</g>
	<g>
		<line class="st0" x1="1" y1="12.9" x2="13.4" y2="12.9"/>
		<line class="st0" x1="13.4" y1="14.4" x2="13.4" y2="12.9"/>
		<line class="st0" x1="11.9" y1="12.9" x2="11.9" y2="14.4"/>
		<line class="st0" x1="10.3" y1="14.4" x2="10.3" y2="12.9"/>
		<line class="st0" x1="8.8" y1="12.9" x2="8.8" y2="14.4"/>
		<line class="st0" x1="7.3" y1="14.4" x2="7.3" y2="12.9"/>
		<line class="st0" x1="5.7" y1="12.9" x2="5.7" y2="14.4"/>
		<line class="st0" x1="4.2" y1="14.4" x2="4.2" y2="12.9"/>
		<line class="st0" x1="2.7" y1="12.9" x2="2.7" y2="14.4"/>
	</g>
	<ellipse class="st0" cx="9.9" cy="5.1" rx="4.5" ry="2.1"/>
	<path class="st0" d="M11.2,4.8c0.5-0.1,0.6-0.3,0.5-0.5C11.5,4,10.2,4,9.5,4.2"/>
	<path class="st0" d="M8.8,4.9C7.3,4.7,7.1,5,7.1,5.3c0,0.2,0.2,0.5,0.9,0.5"/>
	<path class="st0" d="M12.5,5.5C12.1,5.9,11.6,6,11.2,6c-0.7,0-1.2-0.2-1.4-0.3"/>
</g>
</svg>
