<?xml version="1.0" encoding="utf-8"?>
<!-- Generator: Adobe Illustrator 23.0.1, SVG Export Plug-In . SVG Version: 6.00 Build 0)  -->
<svg version="1.0" id="图层_1" xmlns="http://www.w3.org/2000/svg" xmlns:xlink="http://www.w3.org/1999/xlink" x="0px" y="0px"
	 viewBox="0 0 20 20" style="enable-background:new 0 0 20 20;" xml:space="preserve">
<style type="text/css">
	.st0{fill:none;stroke:#101010;stroke-width:0.5;stroke-linecap:round;stroke-linejoin:round;stroke-miterlimit:10;}
</style>
<g>
	<line class="st0" x1="1" y1="8" x2="1" y2="6"/>
	<g>
		<path class="st0" d="M15,19.1h-2.5c-0.6,0-1-0.4-1-1v-3.3c0-0.6,0.4-1,1-1H15c0.6,0,1,0.4,1,1v3.3C16,18.7,15.6,19.1,15,19.1z"/>
		<line class="st0" x1="10.4" y1="16.5" x2="13.4" y2="16.5"/>
		<path class="st0" d="M8.5,14.5c0,1.1,0.9,2,2,2"/>
		<line class="st0" x1="8.5" y1="14.5" x2="8.5" y2="13.5"/>
		<path class="st0" d="M10.2,11.3v1.9c0,0.2-0.2,0.3-0.3,0.3H7.3c-0.2,0-0.3-0.2-0.3-0.3v-1.9"/>
		<line class="st0" x1="4.8" y1="11.3" x2="12.9" y2="11.3"/>
		<path class="st0" d="M16.9,5.7c0.4,3-0.9,5.7-4,5.7"/>
		<path class="st0" d="M2.4,8c0,1.8,0.9,3.3,2.4,3.3"/>
		<line class="st0" x1="1" y1="8" x2="8.6" y2="8"/>
		<path class="st0" d="M1,6c0-3,2.7-4.9,4.6-4.9"/>
		<line class="st0" x1="5.6" y1="1.1" x2="14.5" y2="1.1"/>
		<path class="st0" d="M12.1,5.1C11.3,6.5,9.9,8,8.6,8"/>
		<path class="st0" d="M12.1,5.1c0.8-1.5,1.4-2.1,2.7-2.5"/>
		<path class="st0" d="M14.5,1.1C16,1.1,18.9,2,19,4.9"/>
		<path class="st0" d="M19,4.9c0,1.1-0.5,2-2,2.2"/>
		<path class="st0" d="M10.5,7.1c0,1.4,1.4,2.7,2.9,2.5"/>
		<path class="st0" d="M13.4,3.2c1.7,1.1,2,2.1,2,3.5"/>
		<path class="st0" d="M15.4,6.7c0,1.6-0.7,2.8-2,3"/>
	</g>
</g>
</svg>
