<?xml version="1.0" encoding="utf-8"?>
<!-- Generator: Adobe Illustrator 23.0.1, SVG Export Plug-In . SVG Version: 6.00 Build 0)  -->
<svg version="1.0" id="图层_1" xmlns="http://www.w3.org/2000/svg" xmlns:xlink="http://www.w3.org/1999/xlink" x="0px" y="0px"
	 viewBox="0 0 20 20" style="enable-background:new 0 0 20 20;" xml:space="preserve">
<style type="text/css">
	.st0{fill:none;stroke:#101010;stroke-width:0.5;stroke-linecap:round;stroke-linejoin:round;stroke-miterlimit:10;}
</style>
<g>
	<path class="st0" d="M12,8.7V18c0,0.6-0.5,1-1,1H5c-0.6,0-1-0.5-1-1V2c0-0.6,0.5-1,1-1h6c0.6,0,1,0.5,1,1v4.2"/>
	<path class="st0" d="M15.7,8.7H9.5c-0.7,0-1.2-0.6-1.2-1.2v0c0-0.7,0.6-1.2,1.2-1.2h6.3c0.7,0,1.2,0.6,1.2,1.2v0
		C17,8.1,16.4,8.7,15.7,8.7z"/>
	<path class="st0" d="M10.1,9.9C9.9,9.9,9.7,10,9.6,10C8.2,10,7,8.8,7,7.4s1.1-2.5,2.5-2.5c0.2,0,0.3,0,0.5,0.1"/>
	<g>
		<path class="st0" d="M7.5,15.3C7.2,15.1,7,14.8,7,14.5c0-0.5,0.4-1,1-1s1,0.4,1,1c0,0.3-0.2,0.6-0.4,0.8"/>
		<path class="st0" d="M8.5,15.3v1.3c0,0.3-0.2,0.5-0.5,0.5h0c-0.3,0-0.5-0.2-0.5-0.5v-1.3"/>
	</g>
</g>
</svg>
