<?xml version="1.0" encoding="utf-8"?>
<!-- Generator: Adobe Illustrator 23.0.1, SVG Export Plug-In . SVG Version: 6.00 Build 0)  -->
<svg version="1.0" id="图层_1" xmlns="http://www.w3.org/2000/svg" xmlns:xlink="http://www.w3.org/1999/xlink" x="0px" y="0px"
	 viewBox="0 0 20 20" style="enable-background:new 0 0 20 20;" xml:space="preserve">
<style type="text/css">
	.st0{fill:none;stroke:#101010;stroke-width:0.5;stroke-linecap:round;stroke-linejoin:round;stroke-miterlimit:10;}
</style>
<g>
	<g>
		<path class="st0" d="M8.3,8.5C8.4,8.8,8.5,9,8.5,9.3c0,1.1-0.9,2-2,2s-2-0.9-2-2c0-0.3,0.1-0.5,0.2-0.8"/>
		<path class="st0" d="M8.3,8.5L6.9,5.8c-0.2-0.3-0.6-0.3-0.7,0L4.7,8.5"/>
	</g>
	<path class="st0" d="M18.4,18.2H1.6c-0.3,0-0.6-0.3-0.6-0.6V2.8c0-0.3,0.3-0.6,0.6-0.6h16.8c0.3,0,0.6,0.3,0.6,0.6v14.8
		C19,17.9,18.7,18.2,18.4,18.2z"/>
	<line class="st0" x1="1" y1="14.5" x2="19" y2="14.5"/>
	<g>
		<path class="st0" d="M4.6,17H3.4c-0.3,0-0.6-0.3-0.6-0.6l0,0c0-0.3,0.3-0.6,0.6-0.6h1.2c0.3,0,0.6,0.3,0.6,0.6l0,0
			C5.2,16.7,5,17,4.6,17z"/>
		<path class="st0" d="M8.6,17H7.4c-0.3,0-0.6-0.3-0.6-0.6l0,0c0-0.3,0.3-0.6,0.6-0.6h1.2c0.3,0,0.6,0.3,0.6,0.6l0,0
			C9.2,16.7,8.9,17,8.6,17z"/>
		<path class="st0" d="M12.6,17h-1.2c-0.3,0-0.6-0.3-0.6-0.6l0,0c0-0.3,0.3-0.6,0.6-0.6h1.2c0.3,0,0.6,0.3,0.6,0.6l0,0
			C13.2,16.7,12.9,17,12.6,17z"/>
		<path class="st0" d="M16.6,17h-1.2c-0.3,0-0.6-0.3-0.6-0.6l0,0c0-0.3,0.3-0.6,0.6-0.6h1.2c0.3,0,0.6,0.3,0.6,0.6l0,0
			C17.2,16.7,16.9,17,16.6,17z"/>
	</g>
	<g>
		<line class="st0" x1="10.8" y1="7.2" x2="15.6" y2="7.2"/>
		<line class="st0" x1="10.8" y1="9.6" x2="15.6" y2="9.6"/>
	</g>
	<path class="st0" d="M16.9,13.1H3c-0.3,0-0.6-0.3-0.6-0.6V4.3C2.4,4,2.7,3.7,3,3.7h13.9c0.3,0,0.6,0.3,0.6,0.6v8.2
		C17.5,12.9,17.3,13.1,16.9,13.1z"/>
</g>
</svg>
