<?xml version="1.0" encoding="utf-8"?>
<!-- Generator: Adobe Illustrator 23.0.1, SVG Export Plug-In . SVG Version: 6.00 Build 0)  -->
<svg version="1.0" id="图层_1" xmlns="http://www.w3.org/2000/svg" xmlns:xlink="http://www.w3.org/1999/xlink" x="0px" y="0px"
	 viewBox="0 0 20 20" style="enable-background:new 0 0 20 20;" xml:space="preserve">
<style type="text/css">
	.st0{fill:none;stroke:#101010;stroke-width:0.5;stroke-linecap:round;stroke-linejoin:round;stroke-miterlimit:10;}
</style>
<g>
	<g>
		<ellipse transform="matrix(0.7071 -0.7071 0.7071 0.7071 -4.0569 13.2868)" class="st0" cx="14" cy="11.5" rx="2.6" ry="2.6"/>
		<g>
			<line class="st0" x1="14" y1="10.2" x2="14" y2="10.9"/>
			<line class="st0" x1="13.3" y1="11.9" x2="12.9" y2="12.5"/>
			<line class="st0" x1="14.8" y1="11.9" x2="15.2" y2="12.5"/>
		</g>
	</g>
	<line class="st0" x1="5" y1="3.1" x2="15" y2="3.1"/>
	<g>
		<path class="st0" d="M2.8,4.9C3.5,3.4,4,3.1,5,3.1"/>
		<line class="st0" x1="2.8" y1="4.9" x2="1.1" y2="7.7"/>
	</g>
	<g>
		<path class="st0" d="M17.2,4.9C16.5,3.4,16,3.1,15,3.1"/>
		<line class="st0" x1="17.2" y1="4.9" x2="18.9" y2="7.7"/>
	</g>
	<line class="st0" x1="1.7" y1="7.4" x2="18.3" y2="7.4"/>
	<line class="st0" x1="5" y1="3.1" x2="3.4" y2="7.4"/>
	<line class="st0" x1="6.6" y1="3.1" x2="5.2" y2="7.4"/>
	<line class="st0" x1="8.3" y1="3.1" x2="7.2" y2="7.4"/>
	<line class="st0" x1="14.9" y1="3.1" x2="16.6" y2="7.4"/>
	<line class="st0" x1="13.3" y1="3.1" x2="14.7" y2="7.4"/>
	<line class="st0" x1="11.6" y1="3.1" x2="12.7" y2="7.4"/>
	<g>
		<path class="st0" d="M19,8.1c0-0.4-0.3-0.7-0.7-0.7"/>
		<path class="st0" d="M18.3,15.7c0.4,0,0.7-0.3,0.7-0.7"/>
		<line class="st0" x1="18.3" y1="9.3" x2="19" y2="9.3"/>
		<line class="st0" x1="18.3" y1="10.4" x2="19" y2="10.4"/>
		<line class="st0" x1="18.3" y1="11.5" x2="19" y2="11.5"/>
		<line class="st0" x1="18.3" y1="12.6" x2="19" y2="12.6"/>
		<line class="st0" x1="18.3" y1="13.8" x2="19" y2="13.8"/>
		<line class="st0" x1="18.3" y1="15.7" x2="10" y2="15.7"/>
	</g>
	<g>
		<path class="st0" d="M1,8.1c0-0.4,0.3-0.7,0.7-0.7"/>
		<path class="st0" d="M1.7,15.7C1.3,15.7,1,15.4,1,15"/>
		<line class="st0" x1="1.7" y1="9.3" x2="1" y2="9.3"/>
		<line class="st0" x1="1.7" y1="10.4" x2="1" y2="10.4"/>
		<line class="st0" x1="1.7" y1="11.5" x2="1" y2="11.5"/>
		<line class="st0" x1="1.7" y1="12.6" x2="1" y2="12.6"/>
		<line class="st0" x1="1.7" y1="13.8" x2="1" y2="13.8"/>
		<line class="st0" x1="1.7" y1="15.7" x2="10" y2="15.7"/>
	</g>
	<line class="st0" x1="15.1" y1="16.9" x2="16.9" y2="16.9"/>
	<line class="st0" x1="3.1" y1="16.9" x2="4.8" y2="16.9"/>
	<line class="st0" x1="7.2" y1="10" x2="9.2" y2="10"/>
	<circle class="st0" cx="4.7" cy="10" r="1"/>
	<rect x="3.6" y="12.2" class="st0" width="5.8" height="2"/>
</g>
</svg>
