<?xml version="1.0" encoding="utf-8"?>
<!-- Generator: Adobe Illustrator 23.0.1, SVG Export Plug-In . SVG Version: 6.00 Build 0)  -->
<svg version="1.0" id="图层_1" xmlns="http://www.w3.org/2000/svg" xmlns:xlink="http://www.w3.org/1999/xlink" x="0px" y="0px"
	 viewBox="0 0 20 20" style="enable-background:new 0 0 20 20;" xml:space="preserve">
<style type="text/css">
	.st0{fill:none;stroke:#101010;stroke-width:0.5;stroke-linecap:round;stroke-linejoin:round;stroke-miterlimit:10;}
</style>
<g>
	<path class="st0" d="M15.8,6.9L5.5,17c-0.2,0.2-0.6,0.2-0.8,0l-3.5-3.4c-0.2-0.2-0.2-0.6,0-0.8L11.5,2.7c0.2-0.2,0.6-0.2,0.8,0
		l3.5,3.4C16,6.3,16,6.7,15.8,6.9z"/>
	<g>
		<g>
			<ellipse class="st0" cx="5" cy="13.2" rx="1.9" ry="1.9"/>
			<g>
				<line class="st0" x1="4.3" y1="12.6" x2="4.7" y2="12.9"/>
				<line class="st0" x1="4.8" y1="13.8" x2="4.9" y2="14.3"/>
				<line class="st0" x1="5.6" y1="13" x2="6.1" y2="13.1"/>
			</g>
		</g>
		<g>
			<ellipse class="st0" cx="8.5" cy="9.8" rx="1.9" ry="1.9"/>
			<g>
				<line class="st0" x1="7.8" y1="9.2" x2="8.2" y2="9.5"/>
				<line class="st0" x1="8.3" y1="10.4" x2="8.4" y2="10.9"/>
				<line class="st0" x1="9.1" y1="9.6" x2="9.6" y2="9.7"/>
			</g>
		</g>
		<g>
			<ellipse class="st0" cx="12" cy="6.4" rx="1.9" ry="1.9"/>
			<g>
				<line class="st0" x1="11.3" y1="5.8" x2="11.6" y2="6.1"/>
				<line class="st0" x1="11.8" y1="7" x2="11.9" y2="7.5"/>
				<line class="st0" x1="12.5" y1="6.2" x2="13" y2="6.3"/>
			</g>
		</g>
	</g>
	<g>
		<line class="st0" x1="14.1" y1="4.4" x2="14.7" y2="3.8"/>
		<path class="st0" d="M18.2,3.8c-1-1-2.6-1-3.6,0"/>
		<path class="st0" d="M18.2,3.8c1,1,1,2.6,0,3.6"/>
		<path class="st0" d="M12.5,16.8c1,1,2.6,1,3.6,0"/>
		<path class="st0" d="M12.5,16.8c-1-1-1-2.6,0-3.6"/>
		<line class="st0" x1="18.2" y1="7.4" x2="12.5" y2="13.2"/>
	</g>
</g>
</svg>
