<?xml version="1.0" encoding="utf-8"?>
<!-- Generator: Adobe Illustrator 23.0.1, SVG Export Plug-In . SVG Version: 6.00 Build 0)  -->
<svg version="1.0" id="图层_1" xmlns="http://www.w3.org/2000/svg" xmlns:xlink="http://www.w3.org/1999/xlink" x="0px" y="0px"
	 viewBox="0 0 20 20" style="enable-background:new 0 0 20 20;" xml:space="preserve">
<style type="text/css">
	.st0{fill:none;stroke:#101010;stroke-width:0.5;stroke-linecap:round;stroke-linejoin:round;stroke-miterlimit:10;}
</style>
<g>
	<rect x="4" y="5" class="st0" width="3.4" height="1.2"/>
	<rect x="12.6" y="5" class="st0" width="3.4" height="1.2"/>
	<rect x="8.3" y="5" class="st0" width="3.4" height="1.2"/>
	<path class="st0" d="M18.6,13.8H1.4c-0.2,0-0.4-0.2-0.4-0.4v-5c0-0.2,0.2-0.4,0.4-0.4h1.2L4,6.2h12l1.3,1.7h1.3
		c0.2,0,0.4,0.2,0.4,0.4v5C19,13.6,18.8,13.8,18.6,13.8z"/>
	<g>
		<g>
			<line class="st0" x1="4.4" y1="2.8" x2="7" y2="2.8"/>
			<g>
				<path class="st0" d="M7.3,3.1c0-0.2-0.1-0.3-0.3-0.3"/>
				<path class="st0" d="M7.3,3.1c0,0,0,0.2-0.4,0.5C6.7,3.6,6.3,3.8,6.3,3.8"/>
			</g>
			<g>
				<path class="st0" d="M4.1,3.1c0-0.2,0.1-0.3,0.3-0.3"/>
				<path class="st0" d="M4.1,3.1c0,0,0,0.2,0.4,0.5c0.2,0.1,0.6,0.3,0.6,0.3"/>
			</g>
			<line class="st0" x1="5.1" y1="3.8" x2="6.3" y2="3.8"/>
		</g>
		<line class="st0" x1="6.3" y1="3.8" x2="6.3" y2="5"/>
		<line class="st0" x1="5.1" y1="3.8" x2="5.1" y2="5"/>
	</g>
	<g>
		<g>
			<line class="st0" x1="8.7" y1="2.8" x2="11.3" y2="2.8"/>
			<g>
				<path class="st0" d="M11.6,3.1c0-0.2-0.1-0.3-0.3-0.3"/>
				<path class="st0" d="M11.6,3.1c0,0,0,0.2-0.4,0.5c-0.2,0.1-0.6,0.3-0.6,0.3"/>
			</g>
			<g>
				<path class="st0" d="M8.4,3.1c0-0.2,0.1-0.3,0.3-0.3"/>
				<path class="st0" d="M8.4,3.1c0,0,0,0.2,0.4,0.5C9,3.6,9.4,3.8,9.4,3.8"/>
			</g>
			<line class="st0" x1="9.4" y1="3.8" x2="10.6" y2="3.8"/>
		</g>
		<line class="st0" x1="10.6" y1="3.8" x2="10.6" y2="5"/>
		<line class="st0" x1="9.4" y1="3.8" x2="9.4" y2="5"/>
	</g>
	<g>
		<g>
			<line class="st0" x1="13" y1="2.8" x2="15.6" y2="2.8"/>
			<g>
				<path class="st0" d="M15.9,3.1c0-0.2-0.1-0.3-0.3-0.3"/>
				<path class="st0" d="M15.9,3.1c0,0,0,0.2-0.4,0.5c-0.2,0.1-0.6,0.3-0.6,0.3"/>
			</g>
			<g>
				<path class="st0" d="M12.7,3.1c0-0.2,0.1-0.3,0.3-0.3"/>
				<path class="st0" d="M12.7,3.1c0,0,0,0.2,0.4,0.5c0.2,0.1,0.6,0.3,0.6,0.3"/>
			</g>
			<line class="st0" x1="13.7" y1="3.8" x2="14.9" y2="3.8"/>
		</g>
		<line class="st0" x1="14.9" y1="3.8" x2="14.9" y2="5"/>
		<line class="st0" x1="13.7" y1="3.8" x2="13.7" y2="5"/>
	</g>
</g>
</svg>
