<?xml version="1.0" encoding="utf-8"?>
<!-- Generator: Adobe Illustrator 23.0.1, SVG Export Plug-In . SVG Version: 6.00 Build 0)  -->
<svg version="1.0" id="图层_1" xmlns="http://www.w3.org/2000/svg" xmlns:xlink="http://www.w3.org/1999/xlink" x="0px" y="0px"
	 viewBox="0 0 20 20" style="enable-background:new 0 0 20 20;" xml:space="preserve">
<style type="text/css">
	.st0{fill:none;stroke:#101010;stroke-width:0.5;stroke-linecap:round;stroke-miterlimit:10;}
	.st1{fill:none;stroke:#101010;stroke-width:0.5;stroke-linecap:round;stroke-linejoin:round;stroke-miterlimit:10;}
</style>
<g>
	<line class="st0" x1="6.6" y1="8" x2="13.7" y2="8"/>
	<line class="st0" x1="3.7" y1="13.3" x2="16.3" y2="13.3"/>
	<line class="st0" x1="6.9" y1="8" x2="6.9" y2="13.3"/>
	<line class="st0" x1="10" y1="8" x2="10" y2="13.3"/>
	<line class="st0" x1="13.1" y1="8" x2="13.1" y2="13.3"/>
	<g>
		<path class="st0" d="M7.2,1C5.4,3.2,8.9,3.7,6.8,6.2"/>
		<path class="st0" d="M10.1,1c-1.8,2.2,1.7,2.7-0.4,5.2"/>
		<path class="st0" d="M13.1,1c-1.8,2.2,1.7,2.7-0.4,5.2"/>
	</g>
	<path class="st1" d="M18.4,19H1.6C1.3,19,1,18.7,1,18.4v-2.1c0-0.3,0.3-0.6,0.6-0.6h16.8c0.3,0,0.6,0.3,0.6,0.6v2.1
		C19,18.7,18.7,19,18.4,19z"/>
	<g>
		<line class="st0" x1="17" y1="15.7" x2="15" y2="9.1"/>
		<path class="st0" d="M15,9.1C14.7,8.2,14.2,8,13.4,8"/>
	</g>
	<g>
		<line class="st0" x1="3" y1="15.7" x2="5" y2="9.1"/>
		<path class="st0" d="M5,9.1C5.3,8.2,5.8,8,6.6,8"/>
	</g>
</g>
</svg>
