<?xml version="1.0" encoding="utf-8"?>
<!-- Generator: Adobe Illustrator 23.0.1, SVG Export Plug-In . SVG Version: 6.00 Build 0)  -->
<svg version="1.0" id="图层_1" xmlns="http://www.w3.org/2000/svg" xmlns:xlink="http://www.w3.org/1999/xlink" x="0px" y="0px"
	 viewBox="0 0 20 20" style="enable-background:new 0 0 20 20;" xml:space="preserve">
<style type="text/css">
	.st0{fill:none;stroke:#101010;stroke-width:0.5;stroke-linecap:round;stroke-linejoin:round;stroke-miterlimit:10;}
</style>
<g>
	<path class="st0" d="M16.1,19H5.9c-0.3,0-0.6-0.3-0.6-0.6V1.6C5.3,1.3,5.6,1,5.9,1h10.2c0.3,0,0.6,0.3,0.6,0.6v16.8
		C16.7,18.7,16.5,19,16.1,19z"/>
	<path class="st0" d="M6.2,19H3.6c-0.5,0-0.9-0.4-0.9-0.9V1.9C2.7,1.4,3.1,1,3.6,1h2.6"/>
	<line class="st0" x1="9.5" y1="3.9" x2="11.5" y2="3.9"/>
	<line class="st0" x1="9.5" y1="16.1" x2="11.5" y2="16.1"/>
	<polyline class="st0" points="12.3,6.2 8.4,6.2 8.4,13.8 12.8,13.8 	"/>
	<g>
		<path class="st0" d="M9.5,6.2c0,0,0.3,1,0.8,1.9c0.3,0.7,1.2,1.5,1.2,1.5"/>
		<path class="st0" d="M11.6,10.8c0.4-0.4,0.4-0.7-0.2-1.2"/>
		<path class="st0" d="M11.6,10.8c-0.6,0.6-0.9,0.9-1.7,1.5"/>
	</g>
	<g>
		<path class="st0" d="M12.3,6.2c0,0,0.3,1,0.8,1.9c0.3,0.7,1.2,1.5,1.2,1.5"/>
		<path class="st0" d="M14.5,10.8c0.4-0.4,0.4-0.7-0.2-1.2"/>
		<path class="st0" d="M14.5,10.8c-0.6,0.6-0.9,0.9-1.7,1.5"/>
	</g>
	<line class="st0" x1="10" y1="12.3" x2="12.8" y2="12.3"/>
	<line class="st0" x1="12.8" y1="13.8" x2="12.8" y2="12.4"/>
</g>
</svg>
