<?xml version="1.0" encoding="utf-8"?>
<!-- Generator: Adobe Illustrator 23.0.1, SVG Export Plug-In . SVG Version: 6.00 Build 0)  -->
<svg version="1.0" id="图层_1" xmlns="http://www.w3.org/2000/svg" xmlns:xlink="http://www.w3.org/1999/xlink" x="0px" y="0px"
	 viewBox="0 0 20 20" style="enable-background:new 0 0 20 20;" xml:space="preserve">
<style type="text/css">
	.st0{fill:none;stroke:#101010;stroke-width:0.5;stroke-linecap:round;stroke-linejoin:round;stroke-miterlimit:10;}
</style>
<g>
	<path class="st0" d="M14.4,19H5.6C4.7,19,4,18.3,4,17.4V2.6C4,1.7,4.7,1,5.6,1h8.9C15.3,1,16,1.7,16,2.6v14.9
		C16,18.3,15.3,19,14.4,19z"/>
	<line class="st0" x1="6" y1="19" x2="6" y2="10"/>
	<line class="st0" x1="14" y1="19" x2="14" y2="10"/>
	<line class="st0" x1="11.3" y1="7.7" x2="13" y2="3"/>
	<line class="st0" x1="9" y1="7.7" x2="10.7" y2="3"/>
	<line class="st0" x1="8.2" y1="10" x2="11.8" y2="10"/>
	<line class="st0" x1="8.2" y1="12.9" x2="11.8" y2="12.9"/>
	<line class="st0" x1="8.2" y1="11.5" x2="11.8" y2="11.5"/>
	<g>
		<path class="st0" d="M10.9,15.2c0.2,0.2,0.4,0.5,0.4,0.9c0,0.7-0.6,1.3-1.3,1.3c-0.7,0-1.3-0.6-1.3-1.3c0-0.3,0.1-0.6,0.3-0.8"/>
		<line class="st0" x1="10" y1="15.8" x2="10" y2="14.6"/>
	</g>
	<path class="st0" d="M13.6,7.7H6.4C6.2,7.7,6,7.5,6,7.3V3.4C6,3.2,6.2,3,6.4,3h7.2C13.8,3,14,3.2,14,3.4v3.9
		C14,7.5,13.8,7.7,13.6,7.7z"/>
</g>
</svg>
