<?xml version="1.0" encoding="utf-8"?>
<!-- Generator: Adobe Illustrator 23.0.1, SVG Export Plug-In . SVG Version: 6.00 Build 0)  -->
<svg version="1.0" id="图层_1" xmlns="http://www.w3.org/2000/svg" xmlns:xlink="http://www.w3.org/1999/xlink" x="0px" y="0px"
	 viewBox="0 0 20 20" style="enable-background:new 0 0 20 20;" xml:space="preserve">
<style type="text/css">
	.st0{fill:none;stroke:#101010;stroke-width:0.5;stroke-linecap:round;stroke-miterlimit:10;}
	.st1{fill:none;stroke:#101010;stroke-width:0.5;stroke-linecap:round;stroke-linejoin:round;stroke-miterlimit:10;}
</style>
<g>
	<path class="st0" d="M17.4,3.8H2.6C2.3,3.8,2,3.5,2,3.2l0-1.6C2,1.3,2.3,1,2.6,1h14.8C17.7,1,18,1.3,18,1.6l0,1.6
		C18,3.5,17.7,3.8,17.4,3.8z"/>
	<g>
		<line class="st0" x1="5.1" y1="3.8" x2="6" y2="6.9"/>
		<line class="st0" x1="8.1" y1="8.7" x2="6" y2="6.9"/>
		<g>
			<line class="st0" x1="8.1" y1="8.7" x2="7.1" y2="8.7"/>
			<path class="st0" d="M6.2,9.6c0-0.5,0.4-0.9,0.9-0.9"/>
		</g>
		<g>
			<line class="st0" x1="12.8" y1="10.5" x2="7.1" y2="10.5"/>
			<path class="st0" d="M6.2,9.6c0,0.5,0.4,0.9,0.9,0.9"/>
		</g>
		<line class="st0" x1="14.8" y1="3.8" x2="13.9" y2="6.9"/>
		<line class="st0" x1="11.9" y1="8.7" x2="13.9" y2="6.9"/>
		<g>
			<line class="st0" x1="11.9" y1="8.7" x2="12.8" y2="8.7"/>
			<path class="st0" d="M13.7,9.6c0-0.5-0.4-0.9-0.9-0.9"/>
		</g>
		<g>
			<path class="st0" d="M12.8,10.5"/>
			<path class="st0" d="M13.7,9.6c0,0.5-0.4,0.9-0.9,0.9"/>
		</g>
	</g>
	<g>
		<g>
			<line class="st0" x1="7.6" y1="15.8" x2="5.2" y2="18"/>
		</g>
		<g>
			<line class="st0" x1="12.7" y1="16" x2="14.8" y2="18"/>
		</g>
		<g>
			<line class="st0" x1="10" y1="15.8" x2="10" y2="19"/>
		</g>
	</g>
	<path class="st1" d="M10,13.6H9.8c-0.7,0-1.2-0.6-1.2-1.2v-1.8h2.7v1.8C11.3,13,10.7,13.6,10,13.6z"/>
	<line class="st0" x1="12.7" y1="14.3" x2="16.2" y2="14.3"/>
	<line class="st0" x1="3.6" y1="14.3" x2="7.1" y2="14.3"/>
</g>
</svg>
