<?xml version="1.0" encoding="utf-8"?>
<!-- Generator: Adobe Illustrator 23.0.1, SVG Export Plug-In . SVG Version: 6.00 Build 0)  -->
<svg version="1.0" id="图层_1" xmlns="http://www.w3.org/2000/svg" xmlns:xlink="http://www.w3.org/1999/xlink" x="0px" y="0px"
	 viewBox="0 0 20 20" style="enable-background:new 0 0 20 20;" xml:space="preserve">
<style type="text/css">
	.st0{fill:none;stroke:#101010;stroke-width:0.5;stroke-linecap:round;stroke-linejoin:round;stroke-miterlimit:10;}
</style>
<g>
	<path class="st0" d="M15.3,9.5H4.7c-0.2,0-0.4-0.2-0.4-0.4V6.4C4.3,6.2,4.5,6,4.7,6h10.6c0.2,0,0.4,0.2,0.4,0.4v2.7
		C15.7,9.3,15.5,9.5,15.3,9.5z"/>
	<line class="st0" x1="6.5" y1="14.5" x2="6.5" y2="16.3"/>
	<line class="st0" x1="8.9" y1="14.5" x2="8.9" y2="16.3"/>
	<line class="st0" x1="11.2" y1="14.5" x2="11.2" y2="16.3"/>
	<line class="st0" x1="13.6" y1="14.5" x2="13.6" y2="16.3"/>
	<line class="st0" x1="9.8" y1="6" x2="8.8" y2="9.5"/>
	<line class="st0" x1="13" y1="6" x2="12" y2="9.5"/>
	<line class="st0" x1="11.4" y1="12.3" x2="15.5" y2="12.3"/>
	<line class="st0" x1="4.3" y1="12.3" x2="5.6" y2="12.3"/>
	<line class="st0" x1="7.2" y1="12.3" x2="8.5" y2="12.3"/>
	<g>
		<line class="st0" x1="7.3" y1="1" x2="12.8" y2="1"/>
		<g>
			<line class="st0" x1="4.8" y1="2.3" x2="3.9" y2="3.8"/>
			<path class="st0" d="M4.8,2.3C5.3,1.4,6.1,1,7.3,1"/>
		</g>
		<g>
			<line class="st0" x1="15.2" y1="2.3" x2="16.1" y2="3.8"/>
			<path class="st0" d="M15.2,2.3C14.7,1.4,13.9,1,12.7,1"/>
		</g>
	</g>
	<path class="st0" d="M17.4,14.5H2.6c-0.3,0-0.6-0.3-0.6-0.6V4.4c0-0.3,0.3-0.6,0.6-0.6h14.8c0.3,0,0.6,0.3,0.6,0.6v9.5
		C18,14.2,17.7,14.5,17.4,14.5z"/>
	<g>
		<g>
			<g>
				<line class="st0" x1="15.5" y1="14.5" x2="15.5" y2="17.2"/>
				<line class="st0" x1="14.3" y1="18.4" x2="15.5" y2="17.2"/>
				<line class="st0" x1="10.2" y1="19" x2="12.7" y2="19"/>
			</g>
			<path class="st0" d="M14.3,18.4c-0.5,0.5-0.8,0.6-1.6,0.6"/>
		</g>
		<g>
			<g>
				<line class="st0" x1="4.5" y1="14.5" x2="4.5" y2="17.2"/>
				<line class="st0" x1="5.7" y1="18.4" x2="4.5" y2="17.2"/>
				<line class="st0" x1="10.2" y1="19" x2="7.3" y2="19"/>
			</g>
			<path class="st0" d="M5.7,18.4C6.2,18.9,6.5,19,7.3,19"/>
		</g>
	</g>
</g>
</svg>
