<svg xmlns="http://www.w3.org/2000/svg" viewBox="0 0 46 60"><defs><style>.cls-1{fill:#9e9e9e;}</style></defs><title>camera</title><g id="图层_2" data-name="图层 2"><g id="图层_1-2" data-name="图层 1"><polygon class="cls-1" points="42.89 60 2.89 60 2.87 57 42.88 57 42.89 60"/><polygon class="cls-1" points="19.72 45.42 12.37 58.21 9.57 57.12 16.92 44.34 19.72 45.42"/><polygon class="cls-1" points="25.88 45.37 33.48 58.28 36.27 57.17 28.67 44.26 25.88 45.37"/><path class="cls-1" d="M22.88,0A23,23,0,1,0,46,22.88,23,23,0,0,0,22.88,0Zm0,43A20.12,20.12,0,1,1,43,22.88,20.12,20.12,0,0,1,22.88,43Z"/><path class="cls-1" d="M22.8,7.86A15,15,0,1,0,37.91,22.8,15,15,0,0,0,22.8,7.86Zm.08,27.05a12,12,0,1,1,12-12A12,12,0,0,1,22.88,34.91Z"/><path class="cls-1" d="M18.67,23.5s0-.06,0-.09a5,5,0,0,1,5-5h.15v-3h-.16a8,8,0,0,0-8,8v.08Z"/></g></g></svg>