<svg xmlns="http://www.w3.org/2000/svg" viewBox="0 0 52.9 60.89"><defs><style>.cls-1{fill:#9e9e9e;}</style></defs><title>hiki</title><g id="图层_2" data-name="图层 2"><g id="图层_1-2" data-name="图层 1"><rect class="cls-1" x="1.27" y="26.3" width="3" height="34.59"/><polygon class="cls-1" points="30.96 43 28.76 45.04 0 16.53 2.2 14.49 30.96 43"/><polygon class="cls-1" points="52.9 36.48 49.73 37.53 14.88 2.12 16.99 0 52.9 36.48"/><polygon class="cls-1" points="36.86 41.75 33.66 42.79 4.04 12.95 6.17 10.82 36.86 41.75"/><rect class="cls-1" x="3.48" y="38.81" width="3" height="7.42" transform="translate(47.5 37.54) rotate(90)"/><polygon class="cls-1" points="47.67 35.41 49.73 37.53 33.95 42.7 31.83 40.58 47.67 35.41"/><polygon class="cls-1" points="16.99 0 19.09 2.15 6.16 15.07 4.04 12.95 16.99 0"/><polygon class="cls-1" points="14.09 38.02 14.09 41.02 8.69 44.02 8.69 41.02 14.09 38.02"/></g></g></svg>