<svg xmlns="http://www.w3.org/2000/svg" viewBox="0 0 53.53 60"><defs><style>.cls-1{fill:#9e9e9e;}</style></defs><title>ita2</title><g id="图层_2" data-name="图层 2"><g id="图层_1-2" data-name="图层 1"><path class="cls-1" d="M26.77,0a5,5,0,1,0,5,5A5,5,0,0,0,26.77,0Zm0,7.5A2.5,2.5,0,1,1,29.26,5,2.5,2.5,0,0,1,26.77,7.5Z"/><path class="cls-1" d="M26.77,50a5,5,0,1,0,5,5A5,5,0,0,0,26.77,50Zm0,7.5A2.5,2.5,0,1,1,29.26,55,2.5,2.5,0,0,1,26.77,57.5Z"/><path class="cls-1" d="M52.88,15.24A5,5,0,1,0,51,22.05,5,5,0,0,0,52.88,15.24Zm-6.52,3.69a2.49,2.49,0,1,1,3.4.94A2.49,2.49,0,0,1,46.36,18.93Z"/><path class="cls-1" d="M9.35,39.84a5,5,0,1,0-1.89,6.81A5,5,0,0,0,9.35,39.84ZM2.83,43.53a2.49,2.49,0,1,1,3.4.94A2.5,2.5,0,0,1,2.83,43.53Z"/><path class="cls-1" d="M2.54,22.05A5,5,0,1,0,.65,15.24,5,5,0,0,0,2.54,22.05Zm1.23-2.18a2.49,2.49,0,1,1,3.4-.94A2.49,2.49,0,0,1,3.77,19.87Z"/><path class="cls-1" d="M46.07,46.65a5,5,0,1,0-1.89-6.81A5,5,0,0,0,46.07,46.65Zm1.23-2.18a2.5,2.5,0,1,1,3.4-.94A2.49,2.49,0,0,1,47.3,44.47Z"/><rect class="cls-1" x="8.43" y="12.98" width="2.5" height="2.5" transform="translate(-5.9 6.92) rotate(-30.63)"/><rect class="cls-1" x="12.43" y="10.61" width="2.5" height="2.5" transform="translate(-4.13 8.63) rotate(-30.63)"/><rect class="cls-1" x="16.31" y="8.32" width="2.5" height="2.5" transform="matrix(0.86, -0.51, 0.51, 0.86, -2.43, 10.28)"/><rect class="cls-1" x="20.18" y="6.03" width="2.5" height="2.5" transform="translate(-0.72 11.93) rotate(-30.63)"/><rect class="cls-1" x="42.68" y="12.9" width="2.5" height="2.5" transform="translate(74.52 48.71) rotate(-149.37)"/><rect class="cls-1" x="38.81" y="10.61" width="2.5" height="2.5" transform="translate(68.48 42.47) rotate(-149.37)"/><rect class="cls-1" x="34.93" y="8.32" width="2.5" height="2.5" transform="translate(62.45 36.24) rotate(-149.37)"/><rect class="cls-1" x="30.85" y="5.9" width="2.5" height="2.5" transform="translate(56.07 29.65) rotate(-149.37)"/><rect class="cls-1" x="8.71" y="44.24" width="2.5" height="2.5" transform="translate(24.57 1.27) rotate(30.63)"/><rect class="cls-1" x="12.58" y="46.54" width="2.5" height="2.5" transform="translate(26.28 -0.38) rotate(30.63)"/><rect class="cls-1" x="16.45" y="48.83" width="2.5" height="2.5" transform="translate(27.98 -2.03) rotate(30.63)"/><rect class="cls-1" x="20.32" y="51.12" width="2.5" height="2.5" transform="translate(29.69 -3.68) rotate(30.63)"/><rect class="cls-1" x="42.42" y="44.18" width="2.5" height="2.5" transform="matrix(-0.86, 0.51, -0.51, -0.86, 104.39, 62.28)"/><rect class="cls-1" x="38.55" y="46.47" width="2.5" height="2.5" transform="matrix(-0.86, 0.51, -0.51, -0.86, 98.35, 68.52)"/><rect class="cls-1" x="34.67" y="48.77" width="2.5" height="2.5" transform="translate(92.32 74.75) rotate(149.37)"/><rect class="cls-1" x="30.8" y="51.06" width="2.5" height="2.5" transform="translate(86.28 80.99) rotate(149.37)"/><rect class="cls-1" x="47.82" y="35.39" width="2.5" height="2.5" transform="translate(12.83 86) rotate(-90.46)"/><rect class="cls-1" x="47.79" y="30.89" width="2.5" height="2.5" transform="translate(17.29 81.43) rotate(-90.46)"/><rect class="cls-1" x="47.75" y="26.39" width="2.5" height="2.5" transform="translate(21.76 76.85) rotate(-90.46)"/><rect class="cls-1" x="47.71" y="21.89" width="2.5" height="2.5" transform="translate(26.22 72.28) rotate(-90.46)"/><rect class="cls-1" x="3.32" y="35.29" width="2.5" height="2.5" transform="translate(-31.93 41.4) rotate(-90.46)"/><rect class="cls-1" x="3.29" y="30.79" width="2.5" height="2.5" transform="translate(-27.46 36.83) rotate(-90.46)"/><rect class="cls-1" x="3.25" y="26.29" width="2.5" height="2.5" transform="translate(-23 32.26) rotate(-90.46)"/><rect class="cls-1" x="3.21" y="21.79" width="2.5" height="2.5" transform="translate(-18.54 27.68) rotate(-90.46)"/><path class="cls-1" d="M26.78,16.79a13,13,0,1,0,13,13A13,13,0,0,0,26.78,16.79Zm0,23.51A10.52,10.52,0,1,1,37.3,29.79,10.52,10.52,0,0,1,26.78,40.3Z"/><path class="cls-1" d="M26.77,17.08c.42,0,.83,0,1.25.06V7.5h-2.5v9.64C25.93,17.1,26.34,17.08,26.77,17.08Z"/><path class="cls-1" d="M26.77,42.59c-.43,0-.84,0-1.25-.07v9.11H28V42.52C27.6,42.56,27.19,42.59,26.77,42.59Z"/><path class="cls-1" d="M15.19,35.11,7.31,39.55l1.23,2.18,7.91-4.47A12.48,12.48,0,0,1,15.19,35.11Z"/><path class="cls-1" d="M38.51,24.8,47,20l-1.23-2.18L37.3,22.61A12.6,12.6,0,0,1,38.51,24.8Z"/><path class="cls-1" d="M38.36,35.12a13.63,13.63,0,0,1-1.25,2.16L45,41.73l1.23-2.18Z"/><path class="cls-1" d="M16.25,22.62,7.79,17.84,6.56,20,15,24.81A13,13,0,0,1,16.25,22.62Z"/></g></g></svg>