<?xml version="1.0" encoding="utf-8"?>
<!-- Generator: Adobe Illustrator 22.0.1, SVG Export Plug-In . SVG Version: 6.00 Build 0)  -->
<svg version="1.0" id="图层_1" xmlns="http://www.w3.org/2000/svg" xmlns:xlink="http://www.w3.org/1999/xlink" x="0px" y="0px"
	 viewBox="0 0 120 100" style="enable-background:new 0 0 120 100;" xml:space="preserve">
<g>
	<path style="fill:#101010;" d="M22.6,80h82.1v0v-6v-7.7v-6V21.6v-6h-6H16.6v0v6v38.7v6V74v6H22.6z M98.8,74H80.7v-7.7h18.1V74z
		 M22.6,21.6h6.5v18.1h6V21.6h5.4v18.1h6V21.6H52v18.1h6V21.6h5.4v18.1h6V21.6h5.4v18.1h6V21.6h5.4v18.1h6V21.6h6.5v38.7H80.7h-6v6
		V74h-28v-7.7v-6h-6H22.6V21.6z M22.6,66.3h18.1V74H22.6V66.3z"/>
	<path style="fill:#101010;" d="M120,6V0h0h-6H6H0h0v6h0v88h0v6h0h6h108h6h0v-6h0L120,6L120,6z M114,94H6V6h108V94z"/>
</g>
</svg>
