<?xml version="1.0" encoding="utf-8"?>
<!-- Generator: Adobe Illustrator 22.0.1, SVG Export Plug-In . SVG Version: 6.00 Build 0)  -->
<svg version="1.0" id="图层_1" xmlns="http://www.w3.org/2000/svg" xmlns:xlink="http://www.w3.org/1999/xlink" x="0px" y="0px"
	 viewBox="0 0 60 50.1" style="enable-background:new 0 0 60 50.1;" xml:space="preserve">
<g>
	<path style="fill:#FFFFFF;" d="M11.3,40h41.1v0v-3v-3.8v-3V10.8v-3h-3H8.3v0v3v19.3v3V37v3H11.3z M49.4,37h-9v-3.8h9V37z
		 M11.3,10.8h3.2v9h3v-9h2.7v9h3v-9H26v9h3v-9h2.7v9h3v-9h2.7v9h3v-9h2.7v9h3v-9h3.2v19.3h-9h-3v3V37h-14v-3.8v-3h-3h-9V10.8z
		 M11.3,33.1h9V37h-9V33.1z"/>
	<path style="fill:#FFFFFF;" d="M60,3V0h0h-3H3H0h0v3h0v44h0v3h0h3h54h3h0v-3h0L60,3L60,3z M57,47H3V3h54V47z"/>
</g>
</svg>
