<svg xmlns="http://www.w3.org/2000/svg" viewBox="0 0 60 50">
<defs>
<style>.cls-1{fill:#9e9e9e;}</style>
</defs>
<title>资源 1</title>
<g id="图层_2" data-name="图层 2">
<g id="图层_1-2" data-name="图层 1">
<rect class="cls-1" width="3" height="50"/>
<rect class="cls-1" x="8.32" y="7.82" width="3" height="32.18"/>
<rect class="cls-1" x="49.38" y="7.82" width="3" height="32.18"/>
<rect class="cls-1" x="28.85" y="-12.71" width="3" height="44.06" transform="translate(39.67 -21.03) rotate(90)"/>
<rect class="cls-1" x="28.85" y="16.47" width="3" height="44.06" transform="translate(68.85 8.15) rotate(90)"/>
<rect class="cls-1" x="14.55" y="7.82" width="3" height="12.04" transform="translate(32.11 27.67) rotate(180)"/>
<rect class="cls-1" x="14.34" y="24.13" width="3" height="15.04" transform="translate(-15.81 47.49) rotate(-90)"/>
<rect class="cls-1" x="20.36" y="30.15" width="3" height="9.85"/>
<rect class="cls-1" x="37.34" y="30.15" width="3" height="9.85"/>
<rect class="cls-1" x="43.36" y="24.13" width="3" height="15.04" transform="translate(13.21 76.51) rotate(-90)"/>
<rect class="cls-1" x="20.27" y="7.82" width="3" height="12.04" transform="translate(43.55 27.67) rotate(180)"/><rect class="cls-1" x="25.99" y="7.82" width="3" height="12.04" transform="translate(54.98 27.67) rotate(180)"/><rect class="cls-1" x="31.71" y="7.82" width="3" height="12.04" transform="translate(66.42 27.67) rotate(180)"/><rect class="cls-1" x="37.43" y="7.82" width="3" height="12.04" transform="translate(77.86 27.67) rotate(180)"/><rect class="cls-1" x="43.15" y="7.82" width="3" height="12.04" transform="translate(89.29 27.67) rotate(180)"/><rect class="cls-1" x="57" width="3" height="50"/><rect class="cls-1" x="28.5" y="-28.5" width="3" height="60" transform="translate(31.5 -28.5) rotate(90)"/><rect class="cls-1" x="28.5" y="18.5" width="3" height="60" transform="translate(78.5 18.5) rotate(90)"/></g></g></svg>