<svg xmlns="http://www.w3.org/2000/svg" viewBox="0 0 53.8 59.96"><defs><style>.cls-1{fill:#9e9e9e;}</style></defs><title>random</title><g id="图层_2" data-name="图层 2"><g id="图层_1-2" data-name="图层 1"><rect class="cls-1" x="16.6" width="21" height="3"/><rect class="cls-1" x="16.6" y="12.86" width="21" height="3"/><rect class="cls-1" y="25.96" width="53.78" height="3"/><rect class="cls-1" x="0.02" y="33.93" width="53.78" height="3"/><rect class="cls-1" x="6.38" y="19.41" width="18.23" height="3" transform="translate(-10.51 19.94) rotate(-51.33)"/><rect class="cls-1" x="37.23" y="11.79" width="3" height="18.23" transform="translate(-4.57 28.79) rotate(-38.67)"/><rect class="cls-1" x="16.6" width="3" height="15.85"/><rect class="cls-1" y="25.96" width="3" height="10.96"/><rect class="cls-1" x="50.8" y="25.96" width="3" height="10.96"/><rect class="cls-1" x="34.6" width="3" height="15.85"/><rect class="cls-1" x="6.03" y="54.43" width="8.41" height="3" transform="translate(-22.06 102.71) rotate(-135)"/><rect class="cls-1" x="5.77" y="49.96" width="10.21" height="3" transform="translate(-33.2 22.76) rotate(-45)"/><rect class="cls-1" x="6.94" y="45.35" width="8.84" height="3" transform="translate(-13.74 88.01) rotate(-135)"/><rect class="cls-1" x="21.56" y="54.43" width="8.41" height="3" transform="translate(4.43 113.69) rotate(-135)"/><rect class="cls-1" x="21.29" y="49.96" width="10.21" height="3" transform="translate(-28.66 33.74) rotate(-45)"/><rect class="cls-1" x="22.46" y="45.35" width="8.84" height="3" transform="translate(12.76 98.99) rotate(-135)"/><rect class="cls-1" x="37.08" y="54.43" width="8.41" height="3" transform="translate(30.93 124.67) rotate(-135)"/><rect class="cls-1" x="36.81" y="49.96" width="10.21" height="3" transform="translate(-24.11 44.71) rotate(-45)"/><rect class="cls-1" x="37.98" y="45.35" width="8.84" height="3" transform="translate(39.26 109.96) rotate(-135)"/></g></g></svg>