<svg xmlns="http://www.w3.org/2000/svg" viewBox="0 0 50 60"><defs><style>.cls-1{fill:#10a957;}</style></defs><title>资源 4sensorflow</title><g id="图层_2" data-name="图层 2"><g id="图层_1-2" data-name="图层 1"><rect class="cls-1" width="50" height="3"/><rect class="cls-1" x="6" y="6" width="38" height="3"/><rect class="cls-1" x="12" y="15" width="25.9" height="3"/><rect class="cls-1" x="12" y="21" width="25.9" height="3"/><rect class="cls-1" x="12" y="34" width="25.9" height="3"/><rect class="cls-1" x="9" y="18" width="9" height="3" transform="translate(33 6) rotate(90)"/><rect class="cls-1" x="31.9" y="18" width="9" height="3" transform="translate(55.9 -16.9) rotate(90)"/><rect class="cls-1" x="6" y="41" width="38" height="3"/><rect class="cls-1" x="-11.5" y="23.5" width="38" height="3" transform="translate(32.5 17.5) rotate(90)"/><rect class="cls-1" x="23.5" y="23.5" width="38" height="3" transform="translate(67.5 -17.5) rotate(90)"/><rect class="cls-1" x="6" y="47" width="3" height="13"/><rect class="cls-1" x="41" y="47" width="3" height="13"/><rect class="cls-1" x="6" y="57" width="38" height="3"/><rect class="cls-1" y="47" width="50" height="3"/><rect class="cls-1" x="23.5" y="23.5" width="50" height="3" transform="translate(73.5 -23.5) rotate(90)"/><rect class="cls-1" x="-23.5" y="23.5" width="50" height="3" transform="translate(26.5 23.5) rotate(90)"/><circle class="cls-1" cx="13" cy="53.5" r="1.5"/><circle class="cls-1" cx="18.99" cy="53.5" r="1.5"/><circle class="cls-1" cx="24.98" cy="53.5" r="1.5"/><circle class="cls-1" cx="30.98" cy="53.5" r="1.5"/><circle class="cls-1" cx="36.97" cy="53.5" r="1.5"/></g></g></svg>